<?xml version="1.0" encoding="UTF-8" standalone="no"?>
<!DOCTYPE svg PUBLIC "-//W3C//DTD SVG 1.1//EN" "http://www.w3.org/Graphics/SVG/1.1/DTD/svg11.dtd">
<svg width="100%" height="50" viewBox="0 0 3594 790" version="1.1" xmlns="http://www.w3.org/2000/svg" xmlns:xlink="http://www.w3.org/1999/xlink" xml:space="preserve" xmlns:serif="http://www.serif.com/" style="fill-rule:evenodd;clip-rule:evenodd;stroke-linejoin:round;stroke-miterlimit:2;">
    <g transform="matrix(1,0,0,1,-138.641,0)">
        <g transform="matrix(0.866025,0.5,-0.5,0.866025,115.483,-1118.64)">
            <path d="M1112.14,649.594C1148.68,628.496 1193.71,628.496 1230.25,649.594C1304.77,692.617 1432.17,766.173 1506.69,809.196C1543.23,830.294 1565.74,869.286 1565.74,911.482L1565.74,1230.68C1565.74,1272.88 1543.23,1311.87 1506.69,1332.97C1432.17,1375.99 1304.77,1449.55 1230.25,1492.57C1193.71,1513.67 1148.68,1513.67 1112.14,1492.57C1037.62,1449.55 910.219,1375.99 835.702,1332.97C799.158,1311.87 776.647,1272.88 776.647,1230.68L776.647,911.482C776.647,869.286 799.158,830.294 835.702,809.196C910.219,766.173 1037.62,692.617 1112.14,649.594Z" style="fill:rgb(0,187,134);"/>
        </g>
        <g transform="matrix(1.72345e-16,-1.03466,1.73948,3.45268e-16,-1089.51,1563.86)">
            <path d="M926.855,1005.11C907.941,1005.11 892.609,995.986 892.609,984.736C892.609,974.293 892.609,961.61 892.609,951.167C892.609,939.917 907.941,930.797 926.855,930.797L1063.26,930.797C1066.69,930.797 1069.94,929.882 1072.1,928.303C1074.27,926.724 1075.13,924.65 1074.45,922.652C1070.58,911.362 1063.28,890.039 1056.31,869.684C1053.51,861.499 1059.39,853.127 1071.14,848.561C1082.9,843.995 1098.15,844.161 1109.62,848.98C1182.7,879.685 1294.29,926.566 1353.19,951.314C1362.28,955.131 1367.68,961.335 1367.68,967.951C1367.68,974.568 1362.28,980.772 1353.19,984.589C1294.29,1009.34 1182.7,1056.22 1109.62,1086.92C1098.15,1091.74 1082.9,1091.91 1071.14,1087.34C1059.39,1082.78 1053.51,1074.4 1056.31,1066.22C1063.28,1045.86 1070.58,1024.54 1074.45,1013.25C1075.13,1011.25 1074.27,1009.18 1072.1,1007.6C1069.94,1006.02 1066.69,1005.11 1063.26,1005.11C1034.47,1005.11 967.821,1005.11 926.855,1005.11Z" style="fill:white;"/>
        </g>
        <g transform="matrix(1,0,0,1,0,-25)">
            <g transform="matrix(0.614764,0,0,0.614764,460.394,260.577)">
                <g transform="matrix(312.315,0,0,312.315,1173.65,640.317)">
                    <path d="M0.505,-0C0.486,-0.048 0.467,-0.103 0.446,-0.165C0.425,-0.226 0.405,-0.29 0.388,-0.357C0.371,-0.29 0.352,-0.226 0.331,-0.165C0.31,-0.103 0.291,-0.048 0.272,-0L0.191,-0C0.16,-0.069 0.13,-0.147 0.101,-0.235C0.072,-0.323 0.044,-0.418 0.018,-0.52L0.118,-0.52C0.125,-0.489 0.133,-0.455 0.142,-0.418C0.151,-0.381 0.161,-0.345 0.172,-0.308C0.182,-0.271 0.193,-0.236 0.204,-0.202C0.215,-0.168 0.226,-0.138 0.236,-0.113C0.247,-0.144 0.259,-0.178 0.27,-0.213C0.281,-0.248 0.291,-0.283 0.301,-0.319C0.311,-0.354 0.321,-0.389 0.33,-0.424C0.339,-0.458 0.346,-0.49 0.353,-0.52L0.43,-0.52C0.436,-0.49 0.443,-0.458 0.452,-0.424C0.461,-0.389 0.47,-0.354 0.48,-0.319C0.49,-0.283 0.501,-0.248 0.512,-0.213C0.523,-0.178 0.534,-0.144 0.545,-0.113C0.555,-0.138 0.566,-0.168 0.577,-0.202C0.588,-0.236 0.598,-0.271 0.609,-0.308C0.62,-0.345 0.63,-0.381 0.639,-0.418C0.648,-0.455 0.656,-0.489 0.663,-0.52L0.759,-0.52C0.733,-0.418 0.705,-0.323 0.676,-0.235C0.647,-0.147 0.617,-0.069 0.586,-0L0.505,-0Z" style="fill:rgb(9,25,38);fill-rule:nonzero;"/>
                </g>
                <g transform="matrix(312.315,0,0,312.315,1416.32,640.317)">
                    <path d="M0.051,-0.259C0.051,-0.305 0.058,-0.345 0.071,-0.38C0.084,-0.414 0.102,-0.442 0.124,-0.465C0.146,-0.488 0.171,-0.505 0.2,-0.516C0.229,-0.527 0.258,-0.533 0.288,-0.533C0.358,-0.533 0.412,-0.511 0.449,-0.468C0.486,-0.424 0.505,-0.357 0.505,-0.268L0.505,-0.253C0.505,-0.246 0.505,-0.24 0.504,-0.235L0.148,-0.235C0.152,-0.181 0.168,-0.14 0.195,-0.112C0.222,-0.084 0.265,-0.07 0.323,-0.07C0.356,-0.07 0.383,-0.073 0.406,-0.079C0.428,-0.084 0.445,-0.09 0.456,-0.095L0.469,-0.017C0.458,-0.011 0.438,-0.005 0.41,0.002C0.381,0.009 0.349,0.012 0.313,0.012C0.268,0.012 0.229,0.005 0.196,-0.009C0.163,-0.022 0.135,-0.041 0.114,-0.065C0.093,-0.089 0.077,-0.118 0.067,-0.151C0.056,-0.184 0.051,-0.22 0.051,-0.259ZM0.408,-0.31C0.409,-0.352 0.398,-0.387 0.377,-0.414C0.355,-0.441 0.325,-0.454 0.287,-0.454C0.266,-0.454 0.247,-0.45 0.231,-0.442C0.214,-0.433 0.2,-0.422 0.189,-0.409C0.178,-0.396 0.169,-0.38 0.163,-0.363C0.156,-0.346 0.152,-0.328 0.15,-0.31L0.408,-0.31Z" style="fill:rgb(9,25,38);fill-rule:nonzero;"/>
                </g>
                <g transform="matrix(312.315,0,0,312.315,1590.9,640.317)">
                    <path d="M0.173,-0.497C0.184,-0.504 0.202,-0.512 0.225,-0.52C0.248,-0.528 0.274,-0.532 0.304,-0.532C0.341,-0.532 0.375,-0.525 0.404,-0.512C0.433,-0.499 0.457,-0.48 0.477,-0.456C0.497,-0.432 0.512,-0.403 0.523,-0.37C0.533,-0.337 0.538,-0.3 0.538,-0.26C0.538,-0.218 0.532,-0.18 0.52,-0.147C0.507,-0.113 0.49,-0.084 0.467,-0.061C0.444,-0.038 0.417,-0.02 0.385,-0.007C0.353,0.006 0.317,0.012 0.277,0.012C0.234,0.012 0.195,0.009 0.162,0.003C0.129,-0.003 0.101,-0.009 0.08,-0.015L0.08,-0.76L0.173,-0.776L0.173,-0.497ZM0.173,-0.081C0.182,-0.078 0.196,-0.076 0.213,-0.074C0.23,-0.071 0.251,-0.07 0.276,-0.07C0.326,-0.07 0.366,-0.087 0.396,-0.12C0.426,-0.153 0.441,-0.199 0.441,-0.26C0.441,-0.287 0.438,-0.312 0.433,-0.335C0.428,-0.358 0.419,-0.379 0.407,-0.396C0.395,-0.413 0.38,-0.426 0.361,-0.436C0.341,-0.445 0.319,-0.45 0.292,-0.45C0.267,-0.45 0.243,-0.446 0.222,-0.437C0.201,-0.428 0.184,-0.419 0.173,-0.41L0.173,-0.081Z" style="fill:rgb(9,25,38);fill-rule:nonzero;"/>
                </g>
                <g transform="matrix(312.315,0,0,312.315,1774.86,640.317)">
                    <path d="M0.201,-0.067C0.239,-0.067 0.267,-0.072 0.286,-0.082C0.304,-0.092 0.313,-0.108 0.313,-0.13C0.313,-0.153 0.304,-0.171 0.286,-0.184C0.268,-0.197 0.238,-0.212 0.197,-0.229C0.177,-0.237 0.158,-0.245 0.14,-0.254C0.121,-0.262 0.105,-0.272 0.092,-0.283C0.079,-0.294 0.068,-0.308 0.06,-0.324C0.052,-0.34 0.048,-0.36 0.048,-0.383C0.048,-0.429 0.065,-0.466 0.099,-0.493C0.133,-0.52 0.179,-0.533 0.238,-0.533C0.253,-0.533 0.267,-0.532 0.282,-0.531C0.297,-0.529 0.31,-0.527 0.323,-0.525C0.336,-0.522 0.347,-0.52 0.357,-0.517C0.366,-0.514 0.374,-0.512 0.379,-0.51L0.362,-0.43C0.352,-0.435 0.336,-0.441 0.315,-0.447C0.294,-0.452 0.268,-0.455 0.238,-0.455C0.212,-0.455 0.189,-0.45 0.17,-0.44C0.151,-0.429 0.141,-0.413 0.141,-0.391C0.141,-0.38 0.143,-0.37 0.148,-0.361C0.152,-0.352 0.159,-0.345 0.168,-0.338C0.177,-0.331 0.188,-0.324 0.201,-0.318C0.214,-0.312 0.23,-0.306 0.249,-0.299C0.274,-0.29 0.296,-0.281 0.315,-0.272C0.334,-0.263 0.351,-0.252 0.365,-0.24C0.378,-0.228 0.389,-0.214 0.396,-0.197C0.403,-0.18 0.407,-0.159 0.407,-0.134C0.407,-0.086 0.389,-0.05 0.354,-0.025C0.318,-0 0.267,0.012 0.201,0.012C0.155,0.012 0.119,0.008 0.093,0.001C0.067,-0.007 0.049,-0.013 0.04,-0.017L0.057,-0.097C0.068,-0.093 0.085,-0.087 0.108,-0.079C0.131,-0.071 0.162,-0.067 0.201,-0.067Z" style="fill:rgb(9,25,38);fill-rule:nonzero;"/>
                </g>
                <g transform="matrix(312.315,0,0,312.315,1914.15,640.317)">
                    <path d="M0.173,-0L0.08,-0L0.08,-0.52L0.173,-0.52L0.173,-0ZM0.126,-0.614C0.109,-0.614 0.095,-0.62 0.084,-0.631C0.072,-0.642 0.066,-0.656 0.066,-0.675C0.066,-0.694 0.072,-0.709 0.084,-0.72C0.095,-0.731 0.109,-0.736 0.126,-0.736C0.143,-0.736 0.157,-0.731 0.169,-0.72C0.18,-0.709 0.186,-0.694 0.186,-0.675C0.186,-0.656 0.18,-0.642 0.169,-0.631C0.157,-0.62 0.143,-0.614 0.126,-0.614Z" style="fill:rgb(9,25,38);fill-rule:nonzero;"/>
                </g>
                <g transform="matrix(312.315,0,0,312.315,1993.16,640.317)">
                    <path d="M0.167,-0.52L0.364,-0.52L0.364,-0.442L0.167,-0.442L0.167,-0.202C0.167,-0.176 0.169,-0.155 0.173,-0.138C0.177,-0.121 0.183,-0.107 0.191,-0.098C0.199,-0.088 0.209,-0.081 0.221,-0.077C0.233,-0.073 0.247,-0.071 0.263,-0.071C0.291,-0.071 0.314,-0.074 0.331,-0.081C0.347,-0.087 0.359,-0.091 0.366,-0.094L0.384,-0.017C0.375,-0.012 0.358,-0.007 0.335,0.001C0.312,0.008 0.285,0.011 0.255,0.011C0.22,0.011 0.191,0.007 0.168,-0.003C0.145,-0.012 0.126,-0.025 0.112,-0.043C0.098,-0.061 0.088,-0.083 0.083,-0.11C0.077,-0.136 0.074,-0.166 0.074,-0.201L0.074,-0.665L0.167,-0.681L0.167,-0.52Z" style="fill:rgb(9,25,38);fill-rule:nonzero;"/>
                </g>
                <g transform="matrix(312.315,0,0,312.315,2115.59,640.317)">
                    <path d="M0.051,-0.259C0.051,-0.305 0.058,-0.345 0.071,-0.38C0.084,-0.414 0.102,-0.442 0.124,-0.465C0.146,-0.488 0.171,-0.505 0.2,-0.516C0.229,-0.527 0.258,-0.533 0.288,-0.533C0.358,-0.533 0.412,-0.511 0.449,-0.468C0.486,-0.424 0.505,-0.357 0.505,-0.268L0.505,-0.253C0.505,-0.246 0.505,-0.24 0.504,-0.235L0.148,-0.235C0.152,-0.181 0.168,-0.14 0.195,-0.112C0.222,-0.084 0.265,-0.07 0.323,-0.07C0.356,-0.07 0.383,-0.073 0.406,-0.079C0.428,-0.084 0.445,-0.09 0.456,-0.095L0.469,-0.017C0.458,-0.011 0.438,-0.005 0.41,0.002C0.381,0.009 0.349,0.012 0.313,0.012C0.268,0.012 0.229,0.005 0.196,-0.009C0.163,-0.022 0.135,-0.041 0.114,-0.065C0.093,-0.089 0.077,-0.118 0.067,-0.151C0.056,-0.184 0.051,-0.22 0.051,-0.259ZM0.408,-0.31C0.409,-0.352 0.398,-0.387 0.377,-0.414C0.355,-0.441 0.325,-0.454 0.287,-0.454C0.266,-0.454 0.247,-0.45 0.231,-0.442C0.214,-0.433 0.2,-0.422 0.189,-0.409C0.178,-0.396 0.169,-0.38 0.163,-0.363C0.156,-0.346 0.152,-0.328 0.15,-0.31L0.408,-0.31Z" style="fill:rgb(9,25,38);fill-rule:nonzero;"/>
                </g>
                <g transform="matrix(312.315,0,0,312.315,2290.18,640.317)">
                    <path d="M0.201,-0.067C0.239,-0.067 0.267,-0.072 0.286,-0.082C0.304,-0.092 0.313,-0.108 0.313,-0.13C0.313,-0.153 0.304,-0.171 0.286,-0.184C0.268,-0.197 0.238,-0.212 0.197,-0.229C0.177,-0.237 0.158,-0.245 0.14,-0.254C0.121,-0.262 0.105,-0.272 0.092,-0.283C0.079,-0.294 0.068,-0.308 0.06,-0.324C0.052,-0.34 0.048,-0.36 0.048,-0.383C0.048,-0.429 0.065,-0.466 0.099,-0.493C0.133,-0.52 0.179,-0.533 0.238,-0.533C0.253,-0.533 0.267,-0.532 0.282,-0.531C0.297,-0.529 0.31,-0.527 0.323,-0.525C0.336,-0.522 0.347,-0.52 0.357,-0.517C0.366,-0.514 0.374,-0.512 0.379,-0.51L0.362,-0.43C0.352,-0.435 0.336,-0.441 0.315,-0.447C0.294,-0.452 0.268,-0.455 0.238,-0.455C0.212,-0.455 0.189,-0.45 0.17,-0.44C0.151,-0.429 0.141,-0.413 0.141,-0.391C0.141,-0.38 0.143,-0.37 0.148,-0.361C0.152,-0.352 0.159,-0.345 0.168,-0.338C0.177,-0.331 0.188,-0.324 0.201,-0.318C0.214,-0.312 0.23,-0.306 0.249,-0.299C0.274,-0.29 0.296,-0.281 0.315,-0.272C0.334,-0.263 0.351,-0.252 0.365,-0.24C0.378,-0.228 0.389,-0.214 0.396,-0.197C0.403,-0.18 0.407,-0.159 0.407,-0.134C0.407,-0.086 0.389,-0.05 0.354,-0.025C0.318,-0 0.267,0.012 0.201,0.012C0.155,0.012 0.119,0.008 0.093,0.001C0.067,-0.007 0.049,-0.013 0.04,-0.017L0.057,-0.097C0.068,-0.093 0.085,-0.087 0.108,-0.079C0.131,-0.071 0.162,-0.067 0.201,-0.067Z" style="fill:rgb(9,25,38);fill-rule:nonzero;"/>
                </g>
                <g transform="matrix(312.315,0,0,312.315,2501.61,640.317)">
                    <path d="M0.416,-0.41C0.405,-0.419 0.388,-0.428 0.367,-0.437C0.346,-0.446 0.322,-0.45 0.297,-0.45C0.27,-0.45 0.248,-0.445 0.229,-0.436C0.21,-0.426 0.194,-0.413 0.182,-0.396C0.17,-0.379 0.161,-0.358 0.156,-0.335C0.151,-0.312 0.148,-0.287 0.148,-0.26C0.148,-0.199 0.163,-0.153 0.193,-0.12C0.223,-0.087 0.263,-0.07 0.313,-0.07C0.338,-0.07 0.36,-0.071 0.377,-0.074C0.394,-0.076 0.407,-0.078 0.416,-0.081L0.416,-0.41ZM0.416,-0.76L0.509,-0.776L0.509,-0.015C0.488,-0.009 0.46,-0.003 0.427,0.003C0.394,0.009 0.355,0.012 0.312,0.012C0.272,0.012 0.236,0.006 0.204,-0.007C0.172,-0.02 0.145,-0.038 0.122,-0.061C0.099,-0.084 0.082,-0.113 0.07,-0.147C0.057,-0.18 0.051,-0.218 0.051,-0.26C0.051,-0.3 0.056,-0.337 0.067,-0.37C0.077,-0.403 0.092,-0.432 0.112,-0.456C0.132,-0.48 0.157,-0.499 0.186,-0.512C0.215,-0.525 0.248,-0.532 0.285,-0.532C0.315,-0.532 0.341,-0.528 0.365,-0.52C0.388,-0.512 0.405,-0.504 0.416,-0.497L0.416,-0.76Z" style="fill:rgb(9,25,38);fill-rule:nonzero;"/>
                </g>
                <g transform="matrix(312.315,0,0,312.315,2685.57,640.317)">
                    <path d="M0.539,-0.26C0.539,-0.219 0.533,-0.181 0.521,-0.148C0.509,-0.115 0.492,-0.086 0.471,-0.062C0.449,-0.038 0.423,-0.02 0.393,-0.007C0.363,0.007 0.33,0.013 0.295,0.013C0.26,0.013 0.227,0.007 0.197,-0.007C0.167,-0.02 0.141,-0.038 0.12,-0.062C0.098,-0.086 0.081,-0.115 0.069,-0.148C0.057,-0.181 0.051,-0.219 0.051,-0.26C0.051,-0.301 0.057,-0.338 0.069,-0.372C0.081,-0.405 0.098,-0.434 0.12,-0.458C0.141,-0.482 0.167,-0.501 0.197,-0.514C0.227,-0.527 0.26,-0.533 0.295,-0.533C0.33,-0.533 0.363,-0.527 0.393,-0.514C0.423,-0.501 0.449,-0.482 0.471,-0.458C0.492,-0.434 0.509,-0.405 0.521,-0.372C0.533,-0.338 0.539,-0.301 0.539,-0.26ZM0.442,-0.26C0.442,-0.319 0.429,-0.365 0.403,-0.4C0.376,-0.434 0.34,-0.451 0.295,-0.451C0.25,-0.451 0.214,-0.434 0.188,-0.4C0.161,-0.365 0.148,-0.319 0.148,-0.26C0.148,-0.201 0.161,-0.155 0.188,-0.121C0.214,-0.086 0.25,-0.069 0.295,-0.069C0.34,-0.069 0.376,-0.086 0.403,-0.121C0.429,-0.155 0.442,-0.201 0.442,-0.26Z" style="fill:rgb(9,25,38);fill-rule:nonzero;"/>
                </g>
                <g transform="matrix(312.315,0,0,312.315,2869.83,640.317)">
                    <path d="M0.08,-0.505C0.101,-0.51 0.13,-0.516 0.165,-0.522C0.2,-0.528 0.241,-0.531 0.287,-0.531C0.328,-0.531 0.363,-0.525 0.39,-0.514C0.417,-0.502 0.439,-0.486 0.456,-0.465C0.472,-0.444 0.483,-0.418 0.49,-0.389C0.497,-0.36 0.5,-0.327 0.5,-0.292L0.5,-0L0.407,-0L0.407,-0.272C0.407,-0.304 0.405,-0.331 0.401,-0.354C0.396,-0.377 0.389,-0.395 0.379,-0.409C0.369,-0.423 0.356,-0.433 0.339,-0.44C0.322,-0.446 0.302,-0.449 0.277,-0.449C0.267,-0.449 0.257,-0.449 0.246,-0.448C0.235,-0.447 0.225,-0.447 0.216,-0.446C0.206,-0.444 0.197,-0.443 0.19,-0.442C0.182,-0.441 0.176,-0.44 0.173,-0.439L0.173,-0L0.08,-0L0.08,-0.505Z" style="fill:rgb(9,25,38);fill-rule:nonzero;"/>
                </g>
                <g transform="matrix(312.315,0,0,312.315,3049.1,640.317)">
                    <path d="M0.051,-0.259C0.051,-0.305 0.058,-0.345 0.071,-0.38C0.084,-0.414 0.102,-0.442 0.124,-0.465C0.146,-0.488 0.171,-0.505 0.2,-0.516C0.229,-0.527 0.258,-0.533 0.288,-0.533C0.358,-0.533 0.412,-0.511 0.449,-0.468C0.486,-0.424 0.505,-0.357 0.505,-0.268L0.505,-0.253C0.505,-0.246 0.505,-0.24 0.504,-0.235L0.148,-0.235C0.152,-0.181 0.168,-0.14 0.195,-0.112C0.222,-0.084 0.265,-0.07 0.323,-0.07C0.356,-0.07 0.383,-0.073 0.406,-0.079C0.428,-0.084 0.445,-0.09 0.456,-0.095L0.469,-0.017C0.458,-0.011 0.438,-0.005 0.41,0.002C0.381,0.009 0.349,0.012 0.313,0.012C0.268,0.012 0.229,0.005 0.196,-0.009C0.163,-0.022 0.135,-0.041 0.114,-0.065C0.093,-0.089 0.077,-0.118 0.067,-0.151C0.056,-0.184 0.051,-0.22 0.051,-0.259ZM0.408,-0.31C0.409,-0.352 0.398,-0.387 0.377,-0.414C0.355,-0.441 0.325,-0.454 0.287,-0.454C0.266,-0.454 0.247,-0.45 0.231,-0.442C0.214,-0.433 0.2,-0.422 0.189,-0.409C0.178,-0.396 0.169,-0.38 0.163,-0.363C0.156,-0.346 0.152,-0.328 0.15,-0.31L0.408,-0.31Z" style="fill:rgb(9,25,38);fill-rule:nonzero;"/>
                </g>
                <g transform="matrix(312.315,0,0,312.315,3295.83,640.317)">
                    <path d="M0.272,-0.531C0.28,-0.531 0.289,-0.531 0.3,-0.53C0.31,-0.529 0.32,-0.527 0.33,-0.526C0.34,-0.524 0.349,-0.522 0.358,-0.521C0.366,-0.519 0.372,-0.517 0.376,-0.516L0.36,-0.435C0.353,-0.438 0.341,-0.441 0.324,-0.445C0.307,-0.448 0.285,-0.45 0.258,-0.45C0.241,-0.45 0.224,-0.448 0.207,-0.445C0.19,-0.441 0.178,-0.438 0.173,-0.437L0.173,-0L0.08,-0L0.08,-0.498C0.102,-0.506 0.129,-0.514 0.162,-0.521C0.195,-0.528 0.231,-0.531 0.272,-0.531Z" style="fill:rgb(9,25,38);fill-rule:nonzero;"/>
                </g>
                <g transform="matrix(312.315,0,0,312.315,3416.38,640.317)">
                    <path d="M0.173,-0L0.08,-0L0.08,-0.52L0.173,-0.52L0.173,-0ZM0.126,-0.614C0.109,-0.614 0.095,-0.62 0.084,-0.631C0.072,-0.642 0.066,-0.656 0.066,-0.675C0.066,-0.694 0.072,-0.709 0.084,-0.72C0.095,-0.731 0.109,-0.736 0.126,-0.736C0.143,-0.736 0.157,-0.731 0.169,-0.72C0.18,-0.709 0.186,-0.694 0.186,-0.675C0.186,-0.656 0.18,-0.642 0.169,-0.631C0.157,-0.62 0.143,-0.614 0.126,-0.614Z" style="fill:rgb(9,25,38);fill-rule:nonzero;"/>
                </g>
                <g transform="matrix(312.315,0,0,312.315,3495.4,640.317)">
                    <path d="M0.406,-0.052C0.398,-0.047 0.383,-0.04 0.36,-0.032C0.337,-0.023 0.31,-0.019 0.279,-0.019C0.248,-0.019 0.218,-0.024 0.191,-0.034C0.163,-0.044 0.139,-0.059 0.118,-0.081C0.097,-0.101 0.081,-0.128 0.069,-0.159C0.057,-0.19 0.051,-0.228 0.051,-0.271C0.051,-0.309 0.057,-0.344 0.068,-0.376C0.079,-0.407 0.096,-0.435 0.118,-0.458C0.139,-0.481 0.166,-0.499 0.197,-0.512C0.228,-0.525 0.264,-0.531 0.303,-0.531C0.346,-0.531 0.384,-0.528 0.417,-0.522C0.449,-0.515 0.476,-0.509 0.498,-0.504L0.498,-0.04C0.498,0.04 0.477,0.098 0.436,0.134C0.395,0.17 0.332,0.188 0.248,0.188C0.215,0.188 0.185,0.185 0.156,0.18C0.127,0.175 0.101,0.168 0.08,0.161L0.097,0.08C0.116,0.087 0.138,0.094 0.166,0.1C0.193,0.105 0.221,0.108 0.25,0.108C0.305,0.108 0.345,0.097 0.37,0.075C0.394,0.053 0.406,0.018 0.406,-0.03L0.406,-0.052ZM0.405,-0.438C0.396,-0.441 0.383,-0.443 0.368,-0.446C0.352,-0.448 0.331,-0.449 0.304,-0.449C0.254,-0.449 0.216,-0.433 0.189,-0.4C0.162,-0.367 0.148,-0.324 0.148,-0.27C0.148,-0.24 0.152,-0.214 0.16,-0.193C0.167,-0.172 0.178,-0.154 0.191,-0.14C0.204,-0.126 0.219,-0.116 0.236,-0.109C0.253,-0.102 0.27,-0.099 0.288,-0.099C0.313,-0.099 0.335,-0.102 0.356,-0.11C0.377,-0.116 0.393,-0.125 0.405,-0.134L0.405,-0.438Z" style="fill:rgb(9,25,38);fill-rule:nonzero;"/>
                </g>
                <g transform="matrix(312.315,0,0,312.315,3675.92,640.317)">
                    <path d="M0.08,-0L0.08,-0.76L0.173,-0.776L0.173,-0.51C0.19,-0.517 0.209,-0.522 0.229,-0.526C0.248,-0.529 0.268,-0.531 0.287,-0.531C0.328,-0.531 0.363,-0.525 0.39,-0.514C0.417,-0.502 0.439,-0.486 0.456,-0.465C0.472,-0.444 0.483,-0.418 0.49,-0.389C0.497,-0.36 0.5,-0.327 0.5,-0.292L0.5,-0L0.407,-0L0.407,-0.272C0.407,-0.304 0.405,-0.331 0.401,-0.354C0.396,-0.377 0.389,-0.395 0.379,-0.409C0.369,-0.423 0.356,-0.433 0.339,-0.44C0.322,-0.446 0.302,-0.449 0.277,-0.449C0.267,-0.449 0.257,-0.448 0.246,-0.447C0.235,-0.446 0.225,-0.444 0.216,-0.443C0.206,-0.441 0.197,-0.439 0.19,-0.437C0.182,-0.435 0.176,-0.433 0.173,-0.432L0.173,-0L0.08,-0Z" style="fill:rgb(9,25,38);fill-rule:nonzero;"/>
                </g>
                <g transform="matrix(312.315,0,0,312.315,3854.25,640.317)">
                    <path d="M0.167,-0.52L0.364,-0.52L0.364,-0.442L0.167,-0.442L0.167,-0.202C0.167,-0.176 0.169,-0.155 0.173,-0.138C0.177,-0.121 0.183,-0.107 0.191,-0.098C0.199,-0.088 0.209,-0.081 0.221,-0.077C0.233,-0.073 0.247,-0.071 0.263,-0.071C0.291,-0.071 0.314,-0.074 0.331,-0.081C0.347,-0.087 0.359,-0.091 0.366,-0.094L0.384,-0.017C0.375,-0.012 0.358,-0.007 0.335,0.001C0.312,0.008 0.285,0.011 0.255,0.011C0.22,0.011 0.191,0.007 0.168,-0.003C0.145,-0.012 0.126,-0.025 0.112,-0.043C0.098,-0.061 0.088,-0.083 0.083,-0.11C0.077,-0.136 0.074,-0.166 0.074,-0.201L0.074,-0.665L0.167,-0.681L0.167,-0.52Z" style="fill:rgb(9,25,38);fill-rule:nonzero;"/>
                </g>
            </g>
            <g transform="matrix(0.614764,0,0,0.614764,437.411,48.2311)">
                <g transform="matrix(614.383,0,0,614.383,1173.65,640.317)">
                    <path d="M0.407,-0.267C0.407,-0.363 0.372,-0.411 0.301,-0.411C0.286,-0.411 0.271,-0.409 0.256,-0.405C0.241,-0.401 0.228,-0.396 0.219,-0.39L0.219,-0.119C0.226,-0.118 0.236,-0.117 0.247,-0.116C0.258,-0.115 0.271,-0.114 0.284,-0.114C0.325,-0.114 0.355,-0.128 0.376,-0.156C0.397,-0.184 0.407,-0.221 0.407,-0.267ZM0.559,-0.263C0.559,-0.221 0.553,-0.183 0.541,-0.149C0.528,-0.115 0.51,-0.086 0.487,-0.062C0.464,-0.038 0.435,-0.02 0.401,-0.007C0.367,0.007 0.328,0.013 0.285,0.013C0.267,0.013 0.248,0.012 0.229,0.011C0.209,0.009 0.19,0.007 0.171,0.004C0.152,0.001 0.133,-0.002 0.116,-0.006C0.099,-0.009 0.083,-0.013 0.07,-0.017L0.07,-0.752L0.219,-0.776L0.219,-0.514C0.236,-0.521 0.253,-0.527 0.271,-0.531C0.289,-0.535 0.308,-0.537 0.329,-0.537C0.366,-0.537 0.399,-0.531 0.428,-0.518C0.457,-0.505 0.481,-0.486 0.5,-0.462C0.519,-0.438 0.534,-0.409 0.544,-0.376C0.554,-0.342 0.559,-0.304 0.559,-0.263Z" style="fill:rgb(9,25,38);fill-rule:nonzero;"/>
                </g>
                <g transform="matrix(614.383,0,0,614.383,1544.74,640.317)">
                    <path d="M0.271,-0.104C0.286,-0.104 0.3,-0.104 0.313,-0.105C0.326,-0.106 0.337,-0.107 0.345,-0.108L0.345,-0.221C0.339,-0.222 0.33,-0.224 0.318,-0.225C0.306,-0.226 0.295,-0.227 0.285,-0.227C0.271,-0.227 0.258,-0.226 0.246,-0.225C0.233,-0.223 0.222,-0.22 0.213,-0.215C0.204,-0.21 0.196,-0.204 0.191,-0.196C0.186,-0.188 0.183,-0.178 0.183,-0.166C0.183,-0.143 0.191,-0.127 0.207,-0.118C0.222,-0.109 0.244,-0.104 0.271,-0.104ZM0.259,-0.54C0.303,-0.54 0.34,-0.535 0.369,-0.525C0.398,-0.515 0.422,-0.501 0.44,-0.482C0.457,-0.463 0.47,-0.441 0.477,-0.414C0.484,-0.387 0.488,-0.358 0.488,-0.325L0.488,-0.015C0.467,-0.01 0.437,-0.005 0.399,0.002C0.361,0.008 0.315,0.011 0.261,0.011C0.227,0.011 0.196,0.008 0.169,0.002C0.141,-0.004 0.117,-0.014 0.097,-0.028C0.077,-0.041 0.062,-0.059 0.051,-0.081C0.04,-0.103 0.035,-0.13 0.035,-0.162C0.035,-0.193 0.041,-0.219 0.054,-0.24C0.066,-0.261 0.082,-0.278 0.103,-0.291C0.124,-0.304 0.147,-0.313 0.174,-0.319C0.201,-0.324 0.228,-0.327 0.257,-0.327C0.276,-0.327 0.294,-0.326 0.309,-0.325C0.324,-0.323 0.336,-0.321 0.345,-0.318L0.345,-0.332C0.345,-0.357 0.337,-0.378 0.322,-0.393C0.307,-0.408 0.28,-0.416 0.242,-0.416C0.217,-0.416 0.192,-0.414 0.167,-0.411C0.142,-0.407 0.121,-0.402 0.103,-0.395L0.084,-0.515C0.093,-0.518 0.103,-0.521 0.117,-0.524C0.13,-0.527 0.144,-0.529 0.159,-0.532C0.174,-0.534 0.191,-0.536 0.208,-0.538C0.225,-0.539 0.242,-0.54 0.259,-0.54Z" style="fill:rgb(9,25,38);fill-rule:nonzero;"/>
                </g>
                <g transform="matrix(614.383,0,0,614.383,1884.49,640.317)">
                    <path d="M0.519,-0.018C0.494,-0.011 0.461,-0.004 0.421,0.003C0.381,0.009 0.339,0.012 0.295,0.012C0.25,0.012 0.213,0.006 0.184,-0.006C0.154,-0.018 0.13,-0.035 0.113,-0.057C0.096,-0.078 0.083,-0.104 0.076,-0.134C0.069,-0.164 0.065,-0.197 0.065,-0.233L0.065,-0.526L0.214,-0.526L0.214,-0.251C0.214,-0.203 0.22,-0.168 0.233,-0.147C0.246,-0.126 0.269,-0.115 0.304,-0.115C0.315,-0.115 0.326,-0.116 0.338,-0.117C0.35,-0.118 0.361,-0.119 0.37,-0.12L0.37,-0.526L0.519,-0.526L0.519,-0.018Z" style="fill:rgb(9,25,38);fill-rule:nonzero;"/>
                </g>
                <g transform="matrix(614.383,0,0,614.383,2246.36,640.317)">
                    <path d="M0.359,-0.279C0.359,-0.327 0.353,-0.361 0.341,-0.381C0.328,-0.401 0.307,-0.411 0.277,-0.411C0.268,-0.411 0.258,-0.411 0.248,-0.41C0.238,-0.409 0.228,-0.407 0.219,-0.406L0.219,-0L0.07,-0L0.07,-0.508C0.083,-0.511 0.097,-0.515 0.115,-0.519C0.132,-0.522 0.15,-0.526 0.169,-0.529C0.188,-0.532 0.207,-0.534 0.227,-0.536C0.247,-0.537 0.267,-0.538 0.286,-0.538C0.324,-0.538 0.355,-0.533 0.379,-0.524C0.402,-0.514 0.422,-0.502 0.437,-0.489C0.458,-0.504 0.483,-0.516 0.511,-0.525C0.538,-0.534 0.564,-0.538 0.587,-0.538C0.629,-0.538 0.664,-0.532 0.691,-0.521C0.717,-0.509 0.739,-0.492 0.755,-0.471C0.771,-0.45 0.782,-0.424 0.788,-0.395C0.794,-0.366 0.797,-0.333 0.797,-0.297L0.797,-0L0.648,-0L0.648,-0.279C0.648,-0.327 0.642,-0.361 0.63,-0.381C0.617,-0.401 0.596,-0.411 0.566,-0.411C0.558,-0.411 0.547,-0.409 0.533,-0.405C0.518,-0.401 0.506,-0.396 0.497,-0.39C0.502,-0.375 0.505,-0.359 0.506,-0.342C0.507,-0.325 0.508,-0.306 0.508,-0.287L0.508,-0L0.359,-0L0.359,-0.279Z" style="fill:rgb(9,25,38);fill-rule:nonzero;"/>
                </g>
                <g transform="matrix(614.383,0,0,614.383,2775.96,640.317)">
                    <path d="M0.387,-0.394C0.374,-0.397 0.358,-0.401 0.34,-0.405C0.322,-0.408 0.303,-0.41 0.282,-0.41C0.273,-0.41 0.262,-0.409 0.249,-0.408C0.236,-0.406 0.226,-0.404 0.219,-0.402L0.219,-0L0.07,-0L0.07,-0.498C0.097,-0.507 0.128,-0.516 0.165,-0.525C0.201,-0.533 0.241,-0.537 0.286,-0.537C0.294,-0.537 0.304,-0.537 0.315,-0.536C0.326,-0.535 0.338,-0.533 0.349,-0.532C0.36,-0.53 0.372,-0.528 0.383,-0.526C0.394,-0.523 0.404,-0.52 0.412,-0.517L0.387,-0.394Z" style="fill:rgb(9,25,38);fill-rule:nonzero;"/>
                </g>
                <g transform="matrix(614.383,0,0,614.383,3029.09,640.317)">
                    <path d="M0.562,-0.264C0.562,-0.223 0.556,-0.185 0.544,-0.151C0.532,-0.116 0.515,-0.087 0.492,-0.063C0.469,-0.038 0.442,-0.019 0.411,-0.006C0.379,0.007 0.343,0.014 0.304,0.014C0.265,0.014 0.23,0.007 0.199,-0.006C0.167,-0.019 0.14,-0.038 0.117,-0.063C0.094,-0.087 0.077,-0.116 0.064,-0.151C0.051,-0.185 0.045,-0.223 0.045,-0.264C0.045,-0.305 0.051,-0.343 0.065,-0.377C0.078,-0.411 0.096,-0.44 0.119,-0.464C0.141,-0.488 0.169,-0.507 0.201,-0.52C0.232,-0.533 0.267,-0.54 0.304,-0.54C0.342,-0.54 0.377,-0.533 0.409,-0.52C0.44,-0.507 0.467,-0.488 0.49,-0.464C0.513,-0.44 0.53,-0.411 0.543,-0.377C0.556,-0.343 0.562,-0.305 0.562,-0.264ZM0.41,-0.264C0.41,-0.31 0.401,-0.346 0.383,-0.373C0.364,-0.399 0.338,-0.412 0.304,-0.412C0.27,-0.412 0.244,-0.399 0.225,-0.373C0.206,-0.346 0.197,-0.31 0.197,-0.264C0.197,-0.218 0.206,-0.182 0.225,-0.155C0.244,-0.128 0.27,-0.114 0.304,-0.114C0.338,-0.114 0.364,-0.128 0.383,-0.155C0.401,-0.182 0.41,-0.218 0.41,-0.264Z" style="fill:rgb(9,25,38);fill-rule:nonzero;"/>
                </g>
                <g transform="matrix(614.383,0,0,614.383,3402.02,640.317)">
                    <path d="M0.045,-0.263C0.045,-0.301 0.051,-0.337 0.064,-0.371C0.076,-0.404 0.094,-0.434 0.117,-0.459C0.14,-0.484 0.169,-0.503 0.202,-0.518C0.235,-0.533 0.273,-0.54 0.316,-0.54C0.344,-0.54 0.37,-0.538 0.393,-0.533C0.416,-0.528 0.439,-0.52 0.461,-0.511L0.43,-0.392C0.416,-0.397 0.401,-0.402 0.384,-0.406C0.367,-0.41 0.349,-0.412 0.328,-0.412C0.284,-0.412 0.251,-0.398 0.23,-0.371C0.208,-0.344 0.197,-0.308 0.197,-0.263C0.197,-0.216 0.207,-0.179 0.228,-0.153C0.248,-0.127 0.283,-0.114 0.334,-0.114C0.352,-0.114 0.371,-0.116 0.392,-0.119C0.413,-0.122 0.432,-0.128 0.449,-0.135L0.47,-0.013C0.453,-0.006 0.431,0.001 0.405,0.006C0.379,0.011 0.35,0.014 0.319,0.014C0.271,0.014 0.23,0.007 0.195,-0.008C0.16,-0.022 0.132,-0.041 0.11,-0.066C0.087,-0.091 0.071,-0.12 0.061,-0.154C0.05,-0.187 0.045,-0.224 0.045,-0.263Z" style="fill:rgb(9,25,38);fill-rule:nonzero;"/>
                </g>
                <g transform="matrix(614.383,0,0,614.383,3709.21,640.317)">
                    <path d="M0.219,-0.336C0.234,-0.352 0.249,-0.369 0.265,-0.386C0.28,-0.403 0.295,-0.421 0.31,-0.438C0.325,-0.455 0.339,-0.471 0.352,-0.486C0.365,-0.501 0.376,-0.515 0.385,-0.526L0.562,-0.526C0.527,-0.485 0.492,-0.447 0.459,-0.41C0.425,-0.373 0.388,-0.334 0.348,-0.295C0.368,-0.277 0.389,-0.256 0.41,-0.231C0.431,-0.206 0.452,-0.18 0.472,-0.153C0.492,-0.126 0.51,-0.1 0.527,-0.073C0.544,-0.046 0.558,-0.022 0.569,-0L0.398,-0C0.387,-0.017 0.375,-0.037 0.362,-0.058C0.348,-0.079 0.333,-0.099 0.318,-0.121C0.303,-0.141 0.286,-0.162 0.27,-0.181C0.253,-0.2 0.236,-0.217 0.219,-0.23L0.219,-0L0.07,-0L0.07,-0.752L0.219,-0.776L0.219,-0.336Z" style="fill:rgb(9,25,38);fill-rule:nonzero;"/>
                </g>
                <g transform="matrix(614.383,0,0,614.383,4072.31,640.317)">
                    <path d="M0.216,-0.079C0.216,-0.049 0.206,-0.026 0.188,-0.011C0.169,0.005 0.147,0.013 0.123,0.013C0.099,0.013 0.078,0.005 0.059,-0.011C0.04,-0.026 0.03,-0.049 0.03,-0.079C0.03,-0.109 0.04,-0.132 0.059,-0.148C0.078,-0.163 0.099,-0.171 0.123,-0.171C0.147,-0.171 0.169,-0.163 0.188,-0.148C0.206,-0.132 0.216,-0.109 0.216,-0.079Z" style="fill:rgb(9,25,38);fill-rule:nonzero;"/>
                </g>
                <g transform="matrix(614.383,0,0,614.383,4205.02,640.317)">
                    <path d="M0.045,-0.263C0.045,-0.301 0.051,-0.337 0.064,-0.371C0.076,-0.404 0.094,-0.434 0.117,-0.459C0.14,-0.484 0.169,-0.503 0.202,-0.518C0.235,-0.533 0.273,-0.54 0.316,-0.54C0.344,-0.54 0.37,-0.538 0.393,-0.533C0.416,-0.528 0.439,-0.52 0.461,-0.511L0.43,-0.392C0.416,-0.397 0.401,-0.402 0.384,-0.406C0.367,-0.41 0.349,-0.412 0.328,-0.412C0.284,-0.412 0.251,-0.398 0.23,-0.371C0.208,-0.344 0.197,-0.308 0.197,-0.263C0.197,-0.216 0.207,-0.179 0.228,-0.153C0.248,-0.127 0.283,-0.114 0.334,-0.114C0.352,-0.114 0.371,-0.116 0.392,-0.119C0.413,-0.122 0.432,-0.128 0.449,-0.135L0.47,-0.013C0.453,-0.006 0.431,0.001 0.405,0.006C0.379,0.011 0.35,0.014 0.319,0.014C0.271,0.014 0.23,0.007 0.195,-0.008C0.16,-0.022 0.132,-0.041 0.11,-0.066C0.087,-0.091 0.071,-0.12 0.061,-0.154C0.05,-0.187 0.045,-0.224 0.045,-0.263Z" style="fill:rgb(9,25,38);fill-rule:nonzero;"/>
                </g>
                <g transform="matrix(614.383,0,0,614.383,4496.85,640.317)">
                    <path d="M0.562,-0.264C0.562,-0.223 0.556,-0.185 0.544,-0.151C0.532,-0.116 0.515,-0.087 0.492,-0.063C0.469,-0.038 0.442,-0.019 0.411,-0.006C0.379,0.007 0.343,0.014 0.304,0.014C0.265,0.014 0.23,0.007 0.199,-0.006C0.167,-0.019 0.14,-0.038 0.117,-0.063C0.094,-0.087 0.077,-0.116 0.064,-0.151C0.051,-0.185 0.045,-0.223 0.045,-0.264C0.045,-0.305 0.051,-0.343 0.065,-0.377C0.078,-0.411 0.096,-0.44 0.119,-0.464C0.141,-0.488 0.169,-0.507 0.201,-0.52C0.232,-0.533 0.267,-0.54 0.304,-0.54C0.342,-0.54 0.377,-0.533 0.409,-0.52C0.44,-0.507 0.467,-0.488 0.49,-0.464C0.513,-0.44 0.53,-0.411 0.543,-0.377C0.556,-0.343 0.562,-0.305 0.562,-0.264ZM0.41,-0.264C0.41,-0.31 0.401,-0.346 0.383,-0.373C0.364,-0.399 0.338,-0.412 0.304,-0.412C0.27,-0.412 0.244,-0.399 0.225,-0.373C0.206,-0.346 0.197,-0.31 0.197,-0.264C0.197,-0.218 0.206,-0.182 0.225,-0.155C0.244,-0.128 0.27,-0.114 0.304,-0.114C0.338,-0.114 0.364,-0.128 0.383,-0.155C0.401,-0.182 0.41,-0.218 0.41,-0.264Z" style="fill:rgb(9,25,38);fill-rule:nonzero;"/>
                </g>
                <g transform="matrix(614.383,0,0,614.383,4869.78,640.317)">
                    <path d="M0.359,-0.279C0.359,-0.327 0.353,-0.361 0.341,-0.381C0.328,-0.401 0.307,-0.411 0.277,-0.411C0.268,-0.411 0.258,-0.411 0.248,-0.41C0.238,-0.409 0.228,-0.407 0.219,-0.406L0.219,-0L0.07,-0L0.07,-0.508C0.083,-0.511 0.097,-0.515 0.115,-0.519C0.132,-0.522 0.15,-0.526 0.169,-0.529C0.188,-0.532 0.207,-0.534 0.227,-0.536C0.247,-0.537 0.267,-0.538 0.286,-0.538C0.324,-0.538 0.355,-0.533 0.379,-0.524C0.402,-0.514 0.422,-0.502 0.437,-0.489C0.458,-0.504 0.483,-0.516 0.511,-0.525C0.538,-0.534 0.564,-0.538 0.587,-0.538C0.629,-0.538 0.664,-0.532 0.691,-0.521C0.717,-0.509 0.739,-0.492 0.755,-0.471C0.771,-0.45 0.782,-0.424 0.788,-0.395C0.794,-0.366 0.797,-0.333 0.797,-0.297L0.797,-0L0.648,-0L0.648,-0.279C0.648,-0.327 0.642,-0.361 0.63,-0.381C0.617,-0.401 0.596,-0.411 0.566,-0.411C0.558,-0.411 0.547,-0.409 0.533,-0.405C0.518,-0.401 0.506,-0.396 0.497,-0.39C0.502,-0.375 0.505,-0.359 0.506,-0.342C0.507,-0.325 0.508,-0.306 0.508,-0.287L0.508,-0L0.359,-0L0.359,-0.279Z" style="fill:rgb(9,25,38);fill-rule:nonzero;"/>
                </g>
            </g>
        </g>
    </g>
</svg>
