<?xml version="1.0" encoding="UTF-8" standalone="no"?>
<!DOCTYPE svg PUBLIC "-//W3C//DTD SVG 1.1//EN" "http://www.w3.org/Graphics/SVG/1.1/DTD/svg11.dtd">
<svg height="30" viewBox="0 0 190 19" version="1.1" xmlns="http://www.w3.org/2000/svg" xmlns:xlink="http://www.w3.org/1999/xlink" xml:space="preserve" xmlns:serif="http://www.serif.com/" style="fill-rule:evenodd;clip-rule:evenodd;stroke-linejoin:round;stroke-miterlimit:2;">
    <g transform="matrix(1,0,0,1,-93.543,-144.319)">
        <g transform="matrix(0.646884,0,0,0.26806,31.5671,106.103)">
            <path d="M389.327,160.102C389.327,150.424 386.071,142.567 382.06,142.567L103.073,142.567C99.063,142.567 95.807,150.424 95.807,160.102L95.807,195.172C95.807,204.849 99.063,212.706 103.073,212.706L382.06,212.706C386.071,212.706 389.327,204.849 389.327,195.172L389.327,160.102Z" style="fill:rgb(0,187,134);"/>
        </g>
        <g transform="matrix(0.218271,0,0,0.218271,73.2511,113.899)">
            <g transform="matrix(51.0878,0,0,51.0878,119.441,197.459)">
                <path d="M0.247,-0.069C0.348,-0.069 0.399,-0.104 0.399,-0.173C0.399,-0.194 0.395,-0.213 0.386,-0.228C0.377,-0.243 0.364,-0.256 0.349,-0.267C0.334,-0.278 0.316,-0.287 0.297,-0.295C0.277,-0.303 0.256,-0.311 0.234,-0.319C0.209,-0.328 0.185,-0.338 0.162,-0.348C0.139,-0.36 0.12,-0.373 0.103,-0.388C0.086,-0.403 0.073,-0.42 0.064,-0.441C0.054,-0.462 0.049,-0.487 0.049,-0.516C0.049,-0.577 0.07,-0.624 0.111,-0.658C0.152,-0.692 0.209,-0.709 0.282,-0.709C0.324,-0.709 0.362,-0.705 0.397,-0.696C0.431,-0.687 0.456,-0.677 0.472,-0.666L0.441,-0.587C0.427,-0.596 0.406,-0.604 0.379,-0.613C0.351,-0.621 0.319,-0.625 0.282,-0.625C0.263,-0.625 0.246,-0.623 0.23,-0.619C0.214,-0.615 0.2,-0.609 0.188,-0.601C0.176,-0.593 0.167,-0.583 0.16,-0.571C0.153,-0.558 0.149,-0.544 0.149,-0.527C0.149,-0.508 0.153,-0.493 0.16,-0.48C0.167,-0.467 0.178,-0.456 0.191,-0.447C0.204,-0.437 0.22,-0.428 0.237,-0.42C0.255,-0.412 0.275,-0.404 0.296,-0.396C0.326,-0.384 0.354,-0.372 0.379,-0.36C0.404,-0.348 0.425,-0.334 0.444,-0.317C0.462,-0.3 0.476,-0.281 0.486,-0.258C0.496,-0.234 0.501,-0.207 0.501,-0.174C0.501,-0.113 0.479,-0.067 0.435,-0.034C0.39,-0.001 0.328,0.015 0.247,0.015C0.22,0.015 0.195,0.013 0.172,0.009C0.149,0.006 0.128,0.001 0.11,-0.004C0.092,-0.009 0.077,-0.014 0.064,-0.02C0.051,-0.025 0.04,-0.03 0.033,-0.034L0.062,-0.114C0.077,-0.105 0.101,-0.096 0.132,-0.085C0.163,-0.074 0.202,-0.069 0.247,-0.069Z" style="fill:white;fill-rule:nonzero;"/>
            </g>
            <g transform="matrix(51.0878,0,0,51.0878,146.62,197.459)">
                <path d="M0.494,-0.015C0.473,-0.01 0.445,-0.004 0.409,0.002C0.375,0.008 0.334,0.011 0.288,0.011C0.248,0.011 0.214,0.005 0.187,-0.007C0.16,-0.018 0.138,-0.035 0.121,-0.056C0.104,-0.077 0.092,-0.102 0.085,-0.132C0.078,-0.161 0.074,-0.193 0.074,-0.228L0.074,-0.52L0.167,-0.52L0.167,-0.248C0.167,-0.185 0.177,-0.139 0.197,-0.112C0.217,-0.085 0.251,-0.071 0.298,-0.071C0.308,-0.071 0.318,-0.071 0.329,-0.072C0.34,-0.073 0.35,-0.074 0.359,-0.075C0.368,-0.076 0.377,-0.077 0.385,-0.078C0.392,-0.079 0.398,-0.08 0.401,-0.081L0.401,-0.52L0.494,-0.52L0.494,-0.015Z" style="fill:white;fill-rule:nonzero;"/>
            </g>
            <g transform="matrix(51.0878,0,0,51.0878,175.944,197.459)">
                <path d="M0.441,-0.259C0.441,-0.32 0.426,-0.366 0.396,-0.399C0.366,-0.432 0.326,-0.448 0.276,-0.448C0.248,-0.448 0.226,-0.447 0.211,-0.445C0.195,-0.443 0.182,-0.441 0.173,-0.438L0.173,-0.11C0.184,-0.101 0.201,-0.092 0.222,-0.083C0.243,-0.074 0.267,-0.07 0.292,-0.07C0.319,-0.07 0.342,-0.075 0.361,-0.085C0.38,-0.094 0.395,-0.108 0.407,-0.125C0.419,-0.141 0.428,-0.162 0.433,-0.185C0.438,-0.207 0.441,-0.232 0.441,-0.259ZM0.538,-0.259C0.538,-0.22 0.533,-0.183 0.523,-0.15C0.512,-0.117 0.497,-0.088 0.477,-0.064C0.457,-0.04 0.433,-0.021 0.404,-0.008C0.375,0.005 0.341,0.012 0.304,0.012C0.274,0.012 0.248,0.008 0.225,-0C0.202,-0.008 0.184,-0.016 0.173,-0.023L0.173,0.185L0.08,0.185L0.08,-0.504C0.102,-0.509 0.13,-0.515 0.163,-0.522C0.196,-0.528 0.234,-0.531 0.277,-0.531C0.317,-0.531 0.353,-0.525 0.385,-0.512C0.417,-0.499 0.444,-0.481 0.467,-0.458C0.49,-0.435 0.507,-0.406 0.52,-0.373C0.532,-0.339 0.538,-0.301 0.538,-0.259Z" style="fill:white;fill-rule:nonzero;"/>
            </g>
            <g transform="matrix(51.0878,0,0,51.0878,206.035,197.459)">
                <path d="M0.441,-0.259C0.441,-0.32 0.426,-0.366 0.396,-0.399C0.366,-0.432 0.326,-0.448 0.276,-0.448C0.248,-0.448 0.226,-0.447 0.211,-0.445C0.195,-0.443 0.182,-0.441 0.173,-0.438L0.173,-0.11C0.184,-0.101 0.201,-0.092 0.222,-0.083C0.243,-0.074 0.267,-0.07 0.292,-0.07C0.319,-0.07 0.342,-0.075 0.361,-0.085C0.38,-0.094 0.395,-0.108 0.407,-0.125C0.419,-0.141 0.428,-0.162 0.433,-0.185C0.438,-0.207 0.441,-0.232 0.441,-0.259ZM0.538,-0.259C0.538,-0.22 0.533,-0.183 0.523,-0.15C0.512,-0.117 0.497,-0.088 0.477,-0.064C0.457,-0.04 0.433,-0.021 0.404,-0.008C0.375,0.005 0.341,0.012 0.304,0.012C0.274,0.012 0.248,0.008 0.225,-0C0.202,-0.008 0.184,-0.016 0.173,-0.023L0.173,0.185L0.08,0.185L0.08,-0.504C0.102,-0.509 0.13,-0.515 0.163,-0.522C0.196,-0.528 0.234,-0.531 0.277,-0.531C0.317,-0.531 0.353,-0.525 0.385,-0.512C0.417,-0.499 0.444,-0.481 0.467,-0.458C0.49,-0.435 0.507,-0.406 0.52,-0.373C0.532,-0.339 0.538,-0.301 0.538,-0.259Z" style="fill:white;fill-rule:nonzero;"/>
            </g>
            <g transform="matrix(51.0878,0,0,51.0878,236.126,197.459)">
                <path d="M0.539,-0.26C0.539,-0.219 0.533,-0.181 0.521,-0.148C0.509,-0.115 0.492,-0.086 0.47,-0.062C0.449,-0.038 0.423,-0.02 0.393,-0.007C0.363,0.006 0.33,0.013 0.295,0.013C0.26,0.013 0.227,0.006 0.197,-0.007C0.167,-0.02 0.141,-0.038 0.119,-0.062C0.098,-0.086 0.081,-0.115 0.069,-0.148C0.057,-0.181 0.051,-0.219 0.051,-0.26C0.051,-0.301 0.057,-0.338 0.069,-0.372C0.081,-0.405 0.098,-0.434 0.119,-0.458C0.141,-0.482 0.167,-0.5 0.197,-0.514C0.227,-0.527 0.26,-0.533 0.295,-0.533C0.33,-0.533 0.363,-0.527 0.393,-0.514C0.423,-0.5 0.449,-0.482 0.47,-0.458C0.492,-0.434 0.509,-0.405 0.521,-0.372C0.533,-0.338 0.539,-0.301 0.539,-0.26ZM0.442,-0.26C0.442,-0.319 0.429,-0.365 0.403,-0.4C0.376,-0.434 0.34,-0.451 0.295,-0.451C0.25,-0.451 0.214,-0.434 0.188,-0.4C0.161,-0.365 0.148,-0.319 0.148,-0.26C0.148,-0.201 0.161,-0.155 0.188,-0.121C0.214,-0.086 0.25,-0.069 0.295,-0.069C0.34,-0.069 0.376,-0.086 0.403,-0.121C0.429,-0.155 0.442,-0.201 0.442,-0.26Z" style="fill:white;fill-rule:nonzero;"/>
            </g>
            <g transform="matrix(51.0878,0,0,51.0878,266.267,197.459)">
                <path d="M0.272,-0.531C0.28,-0.531 0.289,-0.531 0.3,-0.53C0.31,-0.529 0.32,-0.527 0.33,-0.526C0.34,-0.524 0.349,-0.522 0.358,-0.521C0.366,-0.519 0.372,-0.517 0.376,-0.516L0.36,-0.435C0.353,-0.438 0.341,-0.441 0.324,-0.445C0.307,-0.448 0.285,-0.45 0.258,-0.45C0.241,-0.45 0.224,-0.448 0.206,-0.445C0.19,-0.441 0.178,-0.438 0.173,-0.437L0.173,-0L0.08,-0L0.08,-0.498C0.102,-0.506 0.129,-0.514 0.162,-0.521C0.195,-0.528 0.231,-0.531 0.272,-0.531Z" style="fill:white;fill-rule:nonzero;"/>
            </g>
            <g transform="matrix(51.0878,0,0,51.0878,285.987,197.459)">
                <path d="M0.167,-0.52L0.364,-0.52L0.364,-0.442L0.167,-0.442L0.167,-0.202C0.167,-0.176 0.169,-0.155 0.173,-0.138C0.177,-0.121 0.183,-0.107 0.191,-0.098C0.199,-0.088 0.209,-0.081 0.221,-0.077C0.233,-0.073 0.247,-0.071 0.263,-0.071C0.291,-0.071 0.314,-0.074 0.331,-0.081C0.347,-0.087 0.359,-0.091 0.366,-0.094L0.384,-0.017C0.375,-0.012 0.358,-0.007 0.335,0C0.312,0.007 0.285,0.011 0.255,0.011C0.22,0.011 0.191,0.006 0.168,-0.003C0.145,-0.012 0.126,-0.025 0.112,-0.043C0.098,-0.061 0.088,-0.083 0.083,-0.11C0.077,-0.136 0.074,-0.166 0.074,-0.201L0.074,-0.665L0.167,-0.681L0.167,-0.52Z" style="fill:white;fill-rule:nonzero;"/>
            </g>
            <g transform="matrix(51.0878,0,0,51.0878,318.326,197.459)">
                <path d="M0.08,-0.505C0.101,-0.51 0.13,-0.516 0.165,-0.522C0.2,-0.528 0.24,-0.531 0.286,-0.531C0.319,-0.531 0.347,-0.527 0.37,-0.518C0.393,-0.508 0.412,-0.495 0.427,-0.478C0.432,-0.481 0.439,-0.486 0.449,-0.492C0.459,-0.498 0.471,-0.504 0.486,-0.509C0.501,-0.515 0.517,-0.52 0.535,-0.525C0.553,-0.529 0.572,-0.531 0.593,-0.531C0.633,-0.531 0.666,-0.525 0.691,-0.514C0.716,-0.502 0.736,-0.485 0.75,-0.464C0.765,-0.443 0.775,-0.417 0.78,-0.388C0.785,-0.359 0.787,-0.327 0.787,-0.292L0.787,-0L0.694,-0L0.694,-0.272C0.694,-0.303 0.693,-0.329 0.69,-0.351C0.687,-0.373 0.681,-0.391 0.673,-0.406C0.664,-0.421 0.653,-0.432 0.639,-0.439C0.624,-0.446 0.606,-0.449 0.583,-0.449C0.552,-0.449 0.526,-0.445 0.505,-0.437C0.485,-0.428 0.471,-0.421 0.464,-0.414C0.469,-0.397 0.473,-0.378 0.476,-0.357C0.479,-0.336 0.48,-0.315 0.48,-0.292L0.48,-0L0.387,-0L0.387,-0.272C0.387,-0.303 0.385,-0.329 0.382,-0.351C0.379,-0.373 0.373,-0.391 0.365,-0.406C0.356,-0.421 0.345,-0.432 0.331,-0.439C0.316,-0.446 0.298,-0.449 0.276,-0.449C0.267,-0.449 0.257,-0.449 0.246,-0.448C0.235,-0.447 0.225,-0.447 0.216,-0.446C0.206,-0.445 0.197,-0.443 0.189,-0.442C0.181,-0.441 0.176,-0.44 0.173,-0.439L0.173,-0L0.08,-0L0.08,-0.505Z" style="fill:white;fill-rule:nonzero;"/>
            </g>
            <g transform="matrix(51.0878,0,0,51.0878,361.393,197.459)">
                <path d="M0.019,0.097C0.026,0.1 0.036,0.103 0.048,0.106C0.059,0.109 0.071,0.111 0.082,0.111C0.119,0.111 0.147,0.103 0.168,0.086C0.189,0.07 0.207,0.044 0.224,0.007C0.182,-0.073 0.143,-0.158 0.107,-0.248C0.07,-0.337 0.04,-0.428 0.016,-0.52L0.116,-0.52C0.123,-0.49 0.132,-0.458 0.142,-0.423C0.153,-0.388 0.164,-0.353 0.177,-0.316C0.19,-0.279 0.203,-0.243 0.218,-0.206C0.233,-0.169 0.248,-0.134 0.264,-0.1C0.289,-0.17 0.311,-0.239 0.33,-0.308C0.349,-0.377 0.366,-0.447 0.383,-0.52L0.479,-0.52C0.455,-0.422 0.428,-0.328 0.399,-0.237C0.37,-0.147 0.338,-0.063 0.304,0.016C0.291,0.046 0.277,0.072 0.263,0.093C0.248,0.115 0.232,0.133 0.215,0.147C0.198,0.161 0.178,0.171 0.157,0.178C0.135,0.185 0.11,0.188 0.083,0.188C0.076,0.188 0.068,0.187 0.06,0.186C0.052,0.185 0.044,0.184 0.037,0.182C0.029,0.181 0.022,0.179 0.016,0.177C0.009,0.175 0.005,0.173 0.002,0.172L0.019,0.097Z" style="fill:white;fill-rule:nonzero;"/>
            </g>
            <g transform="matrix(51.0878,0,0,51.0878,398.585,197.459)">
                <path d="M0.505,-0C0.486,-0.048 0.467,-0.103 0.446,-0.165C0.425,-0.226 0.405,-0.29 0.388,-0.357C0.371,-0.29 0.352,-0.226 0.331,-0.165C0.31,-0.103 0.291,-0.048 0.272,-0L0.191,-0C0.16,-0.069 0.13,-0.147 0.101,-0.235C0.072,-0.323 0.044,-0.418 0.018,-0.52L0.118,-0.52C0.125,-0.489 0.133,-0.455 0.142,-0.418C0.151,-0.381 0.161,-0.345 0.172,-0.308C0.182,-0.271 0.193,-0.236 0.204,-0.202C0.215,-0.168 0.226,-0.138 0.236,-0.113C0.247,-0.144 0.259,-0.178 0.27,-0.213C0.281,-0.248 0.291,-0.283 0.301,-0.319C0.311,-0.354 0.321,-0.389 0.33,-0.424C0.339,-0.458 0.346,-0.49 0.353,-0.52L0.43,-0.52C0.436,-0.49 0.443,-0.458 0.452,-0.424C0.461,-0.389 0.47,-0.354 0.48,-0.319C0.49,-0.283 0.5,-0.248 0.511,-0.213C0.523,-0.178 0.534,-0.144 0.545,-0.113C0.555,-0.138 0.566,-0.168 0.577,-0.202C0.588,-0.236 0.598,-0.271 0.609,-0.308C0.62,-0.345 0.63,-0.381 0.639,-0.418C0.648,-0.455 0.656,-0.489 0.663,-0.52L0.759,-0.52C0.733,-0.418 0.705,-0.323 0.676,-0.235C0.647,-0.147 0.617,-0.069 0.586,-0L0.505,-0Z" style="fill:white;fill-rule:nonzero;"/>
            </g>
            <g transform="matrix(51.0878,0,0,51.0878,437.667,197.459)">
                <path d="M0.539,-0.26C0.539,-0.219 0.533,-0.181 0.521,-0.148C0.509,-0.115 0.492,-0.086 0.47,-0.062C0.449,-0.038 0.423,-0.02 0.393,-0.007C0.363,0.006 0.33,0.013 0.295,0.013C0.26,0.013 0.227,0.006 0.197,-0.007C0.167,-0.02 0.141,-0.038 0.119,-0.062C0.098,-0.086 0.081,-0.115 0.069,-0.148C0.057,-0.181 0.051,-0.219 0.051,-0.26C0.051,-0.301 0.057,-0.338 0.069,-0.372C0.081,-0.405 0.098,-0.434 0.119,-0.458C0.141,-0.482 0.167,-0.5 0.197,-0.514C0.227,-0.527 0.26,-0.533 0.295,-0.533C0.33,-0.533 0.363,-0.527 0.393,-0.514C0.423,-0.5 0.449,-0.482 0.47,-0.458C0.492,-0.434 0.509,-0.405 0.521,-0.372C0.533,-0.338 0.539,-0.301 0.539,-0.26ZM0.442,-0.26C0.442,-0.319 0.429,-0.365 0.403,-0.4C0.376,-0.434 0.34,-0.451 0.295,-0.451C0.25,-0.451 0.214,-0.434 0.188,-0.4C0.161,-0.365 0.148,-0.319 0.148,-0.26C0.148,-0.201 0.161,-0.155 0.188,-0.121C0.214,-0.086 0.25,-0.069 0.295,-0.069C0.34,-0.069 0.376,-0.086 0.403,-0.121C0.429,-0.155 0.442,-0.201 0.442,-0.26Z" style="fill:white;fill-rule:nonzero;"/>
            </g>
            <g transform="matrix(51.0878,0,0,51.0878,467.809,197.459)">
                <path d="M0.272,-0.531C0.28,-0.531 0.289,-0.531 0.3,-0.53C0.31,-0.529 0.32,-0.527 0.33,-0.526C0.34,-0.524 0.349,-0.522 0.358,-0.521C0.366,-0.519 0.372,-0.517 0.376,-0.516L0.36,-0.435C0.353,-0.438 0.341,-0.441 0.324,-0.445C0.307,-0.448 0.285,-0.45 0.258,-0.45C0.241,-0.45 0.224,-0.448 0.206,-0.445C0.19,-0.441 0.178,-0.438 0.173,-0.437L0.173,-0L0.08,-0L0.08,-0.498C0.102,-0.506 0.129,-0.514 0.162,-0.521C0.195,-0.528 0.231,-0.531 0.272,-0.531Z" style="fill:white;fill-rule:nonzero;"/>
            </g>
            <g transform="matrix(51.0878,0,0,51.0878,487.529,197.459)">
                <path d="M0.268,-0.286C0.288,-0.271 0.309,-0.252 0.332,-0.229C0.354,-0.206 0.376,-0.182 0.398,-0.156C0.419,-0.129 0.44,-0.102 0.459,-0.076C0.478,-0.049 0.495,-0.023 0.508,-0L0.399,-0C0.385,-0.023 0.369,-0.047 0.35,-0.071C0.332,-0.096 0.313,-0.119 0.293,-0.141C0.273,-0.164 0.253,-0.184 0.232,-0.203C0.211,-0.222 0.192,-0.237 0.173,-0.25L0.173,-0L0.08,-0L0.08,-0.76L0.173,-0.776L0.173,-0.302C0.189,-0.318 0.207,-0.336 0.226,-0.355C0.245,-0.374 0.264,-0.394 0.283,-0.414C0.302,-0.434 0.319,-0.453 0.336,-0.471C0.353,-0.49 0.367,-0.506 0.379,-0.52L0.488,-0.52C0.473,-0.503 0.456,-0.485 0.438,-0.465C0.42,-0.445 0.401,-0.425 0.382,-0.405C0.363,-0.384 0.343,-0.364 0.324,-0.344C0.304,-0.323 0.285,-0.304 0.268,-0.286Z" style="fill:white;fill-rule:nonzero;"/>
            </g>
            <g transform="matrix(51.0878,0,0,51.0878,525.998,197.459)">
                <path d="M0.256,-0.067C0.278,-0.067 0.298,-0.068 0.315,-0.069C0.332,-0.07 0.346,-0.071 0.357,-0.074L0.357,-0.229C0.35,-0.232 0.34,-0.235 0.325,-0.237C0.31,-0.24 0.291,-0.241 0.27,-0.241C0.256,-0.241 0.241,-0.24 0.226,-0.238C0.21,-0.236 0.196,-0.232 0.183,-0.226C0.17,-0.219 0.159,-0.211 0.15,-0.2C0.141,-0.189 0.137,-0.174 0.137,-0.156C0.137,-0.123 0.148,-0.1 0.169,-0.086C0.19,-0.074 0.219,-0.067 0.256,-0.067ZM0.248,-0.533C0.285,-0.533 0.317,-0.528 0.343,-0.519C0.368,-0.509 0.389,-0.495 0.405,-0.477C0.42,-0.46 0.431,-0.439 0.438,-0.414C0.445,-0.39 0.448,-0.363 0.448,-0.334L0.448,-0.009C0.44,-0.008 0.429,-0.006 0.414,-0.004C0.4,-0.001 0.384,0.001 0.366,0.003C0.348,0.005 0.329,0.007 0.308,0.008C0.286,0.01 0.266,0.011 0.245,0.011C0.216,0.011 0.189,0.008 0.164,0.002C0.139,-0.004 0.118,-0.014 0.1,-0.027C0.082,-0.04 0.068,-0.057 0.058,-0.078C0.048,-0.099 0.043,-0.125 0.043,-0.155C0.043,-0.184 0.049,-0.208 0.061,-0.229C0.072,-0.25 0.088,-0.266 0.108,-0.279C0.128,-0.292 0.151,-0.301 0.178,-0.307C0.205,-0.313 0.233,-0.316 0.262,-0.316C0.271,-0.316 0.281,-0.316 0.291,-0.315C0.301,-0.314 0.311,-0.312 0.32,-0.311C0.329,-0.309 0.336,-0.307 0.343,-0.306C0.35,-0.305 0.354,-0.304 0.357,-0.303L0.357,-0.329C0.357,-0.344 0.355,-0.36 0.352,-0.375C0.349,-0.39 0.343,-0.403 0.334,-0.414C0.325,-0.426 0.314,-0.436 0.299,-0.443C0.283,-0.45 0.264,-0.453 0.24,-0.453C0.209,-0.453 0.183,-0.451 0.16,-0.447C0.137,-0.442 0.119,-0.438 0.108,-0.433L0.097,-0.51C0.109,-0.515 0.129,-0.521 0.157,-0.526C0.185,-0.531 0.215,-0.533 0.248,-0.533Z" style="fill:white;fill-rule:nonzero;"/>
            </g>
            <g transform="matrix(51.0878,0,0,51.0878,552.666,197.459)">
                <path d="M0.08,-0.505C0.101,-0.51 0.13,-0.516 0.165,-0.522C0.2,-0.528 0.241,-0.531 0.287,-0.531C0.328,-0.531 0.363,-0.525 0.39,-0.514C0.417,-0.502 0.439,-0.486 0.456,-0.465C0.472,-0.444 0.483,-0.418 0.49,-0.389C0.497,-0.36 0.5,-0.327 0.5,-0.292L0.5,-0L0.407,-0L0.407,-0.272C0.407,-0.304 0.405,-0.331 0.401,-0.354C0.396,-0.377 0.389,-0.395 0.379,-0.409C0.369,-0.423 0.356,-0.433 0.339,-0.44C0.322,-0.446 0.302,-0.449 0.277,-0.449C0.267,-0.449 0.257,-0.449 0.246,-0.448C0.235,-0.447 0.225,-0.447 0.216,-0.446C0.206,-0.445 0.197,-0.443 0.19,-0.442C0.182,-0.441 0.176,-0.44 0.173,-0.439L0.173,-0L0.08,-0L0.08,-0.505Z" style="fill:white;fill-rule:nonzero;"/>
            </g>
            <g transform="matrix(51.0878,0,0,51.0878,581.99,197.459)">
                <path d="M0.416,-0.41C0.405,-0.419 0.388,-0.428 0.367,-0.437C0.346,-0.446 0.322,-0.45 0.297,-0.45C0.27,-0.45 0.248,-0.445 0.229,-0.436C0.21,-0.426 0.194,-0.412 0.182,-0.396C0.17,-0.379 0.161,-0.358 0.156,-0.335C0.151,-0.312 0.148,-0.287 0.148,-0.26C0.148,-0.199 0.163,-0.153 0.193,-0.119C0.223,-0.086 0.263,-0.07 0.313,-0.07C0.338,-0.07 0.36,-0.071 0.377,-0.074C0.394,-0.076 0.407,-0.078 0.416,-0.081L0.416,-0.41ZM0.416,-0.76L0.509,-0.776L0.509,-0.015C0.488,-0.009 0.46,-0.003 0.427,0.003C0.394,0.009 0.355,0.012 0.312,0.012C0.272,0.012 0.236,0.006 0.204,-0.007C0.172,-0.02 0.145,-0.038 0.122,-0.061C0.099,-0.084 0.082,-0.113 0.07,-0.147C0.057,-0.18 0.051,-0.218 0.051,-0.26C0.051,-0.3 0.056,-0.337 0.067,-0.37C0.077,-0.403 0.092,-0.432 0.112,-0.456C0.132,-0.48 0.157,-0.499 0.186,-0.512C0.215,-0.525 0.248,-0.532 0.285,-0.532C0.315,-0.532 0.342,-0.528 0.365,-0.52C0.388,-0.512 0.405,-0.504 0.416,-0.497L0.416,-0.76Z" style="fill:white;fill-rule:nonzero;"/>
            </g>
            <g transform="matrix(51.0878,0,0,51.0878,623.882,197.459)">
                <path d="M0.201,-0.067C0.239,-0.067 0.267,-0.072 0.285,-0.082C0.304,-0.092 0.313,-0.108 0.313,-0.13C0.313,-0.153 0.304,-0.171 0.286,-0.184C0.268,-0.197 0.238,-0.212 0.197,-0.229C0.177,-0.237 0.158,-0.245 0.14,-0.254C0.121,-0.262 0.105,-0.272 0.092,-0.283C0.079,-0.294 0.068,-0.308 0.06,-0.324C0.052,-0.34 0.048,-0.36 0.048,-0.383C0.048,-0.429 0.065,-0.466 0.099,-0.493C0.133,-0.52 0.179,-0.533 0.238,-0.533C0.253,-0.533 0.267,-0.532 0.282,-0.531C0.297,-0.529 0.31,-0.527 0.323,-0.525C0.336,-0.522 0.347,-0.52 0.357,-0.517C0.366,-0.514 0.374,-0.512 0.379,-0.51L0.362,-0.43C0.352,-0.435 0.336,-0.441 0.315,-0.447C0.294,-0.452 0.268,-0.455 0.238,-0.455C0.212,-0.455 0.189,-0.45 0.17,-0.44C0.151,-0.429 0.141,-0.413 0.141,-0.391C0.141,-0.38 0.143,-0.37 0.148,-0.361C0.152,-0.352 0.159,-0.344 0.168,-0.338C0.177,-0.331 0.188,-0.324 0.201,-0.318C0.214,-0.312 0.23,-0.306 0.249,-0.299C0.274,-0.29 0.296,-0.281 0.315,-0.272C0.334,-0.263 0.351,-0.252 0.365,-0.24C0.378,-0.228 0.389,-0.214 0.396,-0.197C0.403,-0.18 0.407,-0.159 0.407,-0.134C0.407,-0.086 0.389,-0.05 0.354,-0.025C0.318,-0 0.267,0.012 0.201,0.012C0.155,0.012 0.119,0.008 0.093,0C0.067,-0.007 0.049,-0.013 0.04,-0.017L0.057,-0.097C0.068,-0.093 0.085,-0.087 0.108,-0.079C0.131,-0.071 0.162,-0.067 0.201,-0.067Z" style="fill:white;fill-rule:nonzero;"/>
            </g>
            <g transform="matrix(51.0878,0,0,51.0878,646.667,197.459)">
                <path d="M0.256,-0.067C0.278,-0.067 0.298,-0.068 0.315,-0.069C0.332,-0.07 0.346,-0.071 0.357,-0.074L0.357,-0.229C0.35,-0.232 0.34,-0.235 0.325,-0.237C0.31,-0.24 0.291,-0.241 0.27,-0.241C0.256,-0.241 0.241,-0.24 0.226,-0.238C0.21,-0.236 0.196,-0.232 0.183,-0.226C0.17,-0.219 0.159,-0.211 0.15,-0.2C0.141,-0.189 0.137,-0.174 0.137,-0.156C0.137,-0.123 0.148,-0.1 0.169,-0.086C0.19,-0.074 0.219,-0.067 0.256,-0.067ZM0.248,-0.533C0.285,-0.533 0.317,-0.528 0.343,-0.519C0.368,-0.509 0.389,-0.495 0.405,-0.477C0.42,-0.46 0.431,-0.439 0.438,-0.414C0.445,-0.39 0.448,-0.363 0.448,-0.334L0.448,-0.009C0.44,-0.008 0.429,-0.006 0.414,-0.004C0.4,-0.001 0.384,0.001 0.366,0.003C0.348,0.005 0.329,0.007 0.308,0.008C0.286,0.01 0.266,0.011 0.245,0.011C0.216,0.011 0.189,0.008 0.164,0.002C0.139,-0.004 0.118,-0.014 0.1,-0.027C0.082,-0.04 0.068,-0.057 0.058,-0.078C0.048,-0.099 0.043,-0.125 0.043,-0.155C0.043,-0.184 0.049,-0.208 0.061,-0.229C0.072,-0.25 0.088,-0.266 0.108,-0.279C0.128,-0.292 0.151,-0.301 0.178,-0.307C0.205,-0.313 0.233,-0.316 0.262,-0.316C0.271,-0.316 0.281,-0.316 0.291,-0.315C0.301,-0.314 0.311,-0.312 0.32,-0.311C0.329,-0.309 0.336,-0.307 0.343,-0.306C0.35,-0.305 0.354,-0.304 0.357,-0.303L0.357,-0.329C0.357,-0.344 0.355,-0.36 0.352,-0.375C0.349,-0.39 0.343,-0.403 0.334,-0.414C0.325,-0.426 0.314,-0.436 0.299,-0.443C0.283,-0.45 0.264,-0.453 0.24,-0.453C0.209,-0.453 0.183,-0.451 0.16,-0.447C0.137,-0.442 0.119,-0.438 0.108,-0.433L0.097,-0.51C0.109,-0.515 0.129,-0.521 0.157,-0.526C0.185,-0.531 0.215,-0.533 0.248,-0.533Z" style="fill:white;fill-rule:nonzero;"/>
            </g>
            <g transform="matrix(51.0878,0,0,51.0878,672.569,197.459)">
                <path d="M0.019,0.097C0.026,0.1 0.036,0.103 0.048,0.106C0.059,0.109 0.071,0.111 0.082,0.111C0.119,0.111 0.147,0.103 0.168,0.086C0.189,0.07 0.207,0.044 0.224,0.007C0.182,-0.073 0.143,-0.158 0.107,-0.248C0.07,-0.337 0.04,-0.428 0.016,-0.52L0.116,-0.52C0.123,-0.49 0.132,-0.458 0.142,-0.423C0.153,-0.388 0.164,-0.353 0.177,-0.316C0.19,-0.279 0.203,-0.243 0.218,-0.206C0.233,-0.169 0.248,-0.134 0.264,-0.1C0.289,-0.17 0.311,-0.239 0.33,-0.308C0.349,-0.377 0.366,-0.447 0.383,-0.52L0.479,-0.52C0.455,-0.422 0.428,-0.328 0.399,-0.237C0.37,-0.147 0.338,-0.063 0.304,0.016C0.291,0.046 0.277,0.072 0.263,0.093C0.248,0.115 0.232,0.133 0.215,0.147C0.198,0.161 0.178,0.171 0.157,0.178C0.135,0.185 0.11,0.188 0.083,0.188C0.076,0.188 0.068,0.187 0.06,0.186C0.052,0.185 0.044,0.184 0.037,0.182C0.029,0.181 0.022,0.179 0.016,0.177C0.009,0.175 0.005,0.173 0.002,0.172L0.019,0.097Z" style="fill:white;fill-rule:nonzero;"/>
            </g>
            <g transform="matrix(51.0878,0,0,51.0878,709.761,197.459)">
                <path d="M0.167,-0.52L0.364,-0.52L0.364,-0.442L0.167,-0.442L0.167,-0.202C0.167,-0.176 0.169,-0.155 0.173,-0.138C0.177,-0.121 0.183,-0.107 0.191,-0.098C0.199,-0.088 0.209,-0.081 0.221,-0.077C0.233,-0.073 0.247,-0.071 0.263,-0.071C0.291,-0.071 0.314,-0.074 0.331,-0.081C0.347,-0.087 0.359,-0.091 0.366,-0.094L0.384,-0.017C0.375,-0.012 0.358,-0.007 0.335,0C0.312,0.007 0.285,0.011 0.255,0.011C0.22,0.011 0.191,0.006 0.168,-0.003C0.145,-0.012 0.126,-0.025 0.112,-0.043C0.098,-0.061 0.088,-0.083 0.083,-0.11C0.077,-0.136 0.074,-0.166 0.074,-0.201L0.074,-0.665L0.167,-0.681L0.167,-0.52Z" style="fill:white;fill-rule:nonzero;"/>
            </g>
            <g transform="matrix(51.0878,0,0,51.0878,730.298,197.459)">
                <path d="M0.08,-0L0.08,-0.76L0.173,-0.776L0.173,-0.51C0.19,-0.517 0.209,-0.522 0.229,-0.526C0.248,-0.529 0.268,-0.531 0.287,-0.531C0.328,-0.531 0.363,-0.525 0.39,-0.514C0.417,-0.502 0.439,-0.486 0.456,-0.465C0.472,-0.444 0.483,-0.418 0.49,-0.389C0.497,-0.36 0.5,-0.327 0.5,-0.292L0.5,-0L0.407,-0L0.407,-0.272C0.407,-0.304 0.405,-0.331 0.401,-0.354C0.396,-0.377 0.389,-0.395 0.379,-0.409C0.369,-0.423 0.356,-0.433 0.339,-0.44C0.322,-0.446 0.302,-0.449 0.277,-0.449C0.267,-0.449 0.257,-0.448 0.246,-0.447C0.235,-0.446 0.225,-0.444 0.216,-0.443C0.206,-0.441 0.197,-0.439 0.19,-0.437C0.182,-0.435 0.176,-0.433 0.173,-0.432L0.173,-0L0.08,-0Z" style="fill:white;fill-rule:nonzero;"/>
            </g>
            <g transform="matrix(51.0878,0,0,51.0878,759.469,197.459)">
                <path d="M0.256,-0.067C0.278,-0.067 0.298,-0.068 0.315,-0.069C0.332,-0.07 0.346,-0.071 0.357,-0.074L0.357,-0.229C0.35,-0.232 0.34,-0.235 0.325,-0.237C0.31,-0.24 0.291,-0.241 0.27,-0.241C0.256,-0.241 0.241,-0.24 0.226,-0.238C0.21,-0.236 0.196,-0.232 0.183,-0.226C0.17,-0.219 0.159,-0.211 0.15,-0.2C0.141,-0.189 0.137,-0.174 0.137,-0.156C0.137,-0.123 0.148,-0.1 0.169,-0.086C0.19,-0.074 0.219,-0.067 0.256,-0.067ZM0.248,-0.533C0.285,-0.533 0.317,-0.528 0.343,-0.519C0.368,-0.509 0.389,-0.495 0.405,-0.477C0.42,-0.46 0.431,-0.439 0.438,-0.414C0.445,-0.39 0.448,-0.363 0.448,-0.334L0.448,-0.009C0.44,-0.008 0.429,-0.006 0.414,-0.004C0.4,-0.001 0.384,0.001 0.366,0.003C0.348,0.005 0.329,0.007 0.308,0.008C0.286,0.01 0.266,0.011 0.245,0.011C0.216,0.011 0.189,0.008 0.164,0.002C0.139,-0.004 0.118,-0.014 0.1,-0.027C0.082,-0.04 0.068,-0.057 0.058,-0.078C0.048,-0.099 0.043,-0.125 0.043,-0.155C0.043,-0.184 0.049,-0.208 0.061,-0.229C0.072,-0.25 0.088,-0.266 0.108,-0.279C0.128,-0.292 0.151,-0.301 0.178,-0.307C0.205,-0.313 0.233,-0.316 0.262,-0.316C0.271,-0.316 0.281,-0.316 0.291,-0.315C0.301,-0.314 0.311,-0.312 0.32,-0.311C0.329,-0.309 0.336,-0.307 0.343,-0.306C0.35,-0.305 0.354,-0.304 0.357,-0.303L0.357,-0.329C0.357,-0.344 0.355,-0.36 0.352,-0.375C0.349,-0.39 0.343,-0.403 0.334,-0.414C0.325,-0.426 0.314,-0.436 0.299,-0.443C0.283,-0.45 0.264,-0.453 0.24,-0.453C0.209,-0.453 0.183,-0.451 0.16,-0.447C0.137,-0.442 0.119,-0.438 0.108,-0.433L0.097,-0.51C0.109,-0.515 0.129,-0.521 0.157,-0.526C0.185,-0.531 0.215,-0.533 0.248,-0.533Z" style="fill:white;fill-rule:nonzero;"/>
            </g>
            <g transform="matrix(51.0878,0,0,51.0878,786.137,197.459)">
                <path d="M0.08,-0.505C0.101,-0.51 0.13,-0.516 0.165,-0.522C0.2,-0.528 0.241,-0.531 0.287,-0.531C0.328,-0.531 0.363,-0.525 0.39,-0.514C0.417,-0.502 0.439,-0.486 0.456,-0.465C0.472,-0.444 0.483,-0.418 0.49,-0.389C0.497,-0.36 0.5,-0.327 0.5,-0.292L0.5,-0L0.407,-0L0.407,-0.272C0.407,-0.304 0.405,-0.331 0.401,-0.354C0.396,-0.377 0.389,-0.395 0.379,-0.409C0.369,-0.423 0.356,-0.433 0.339,-0.44C0.322,-0.446 0.302,-0.449 0.277,-0.449C0.267,-0.449 0.257,-0.449 0.246,-0.448C0.235,-0.447 0.225,-0.447 0.216,-0.446C0.206,-0.445 0.197,-0.443 0.19,-0.442C0.182,-0.441 0.176,-0.44 0.173,-0.439L0.173,-0L0.08,-0L0.08,-0.505Z" style="fill:white;fill-rule:nonzero;"/>
            </g>
            <g transform="matrix(51.0878,0,0,51.0878,815.462,197.459)">
                <path d="M0.268,-0.286C0.288,-0.271 0.309,-0.252 0.332,-0.229C0.354,-0.206 0.376,-0.182 0.398,-0.156C0.419,-0.129 0.44,-0.102 0.459,-0.076C0.478,-0.049 0.495,-0.023 0.508,-0L0.399,-0C0.385,-0.023 0.369,-0.047 0.35,-0.071C0.332,-0.096 0.313,-0.119 0.293,-0.141C0.273,-0.164 0.253,-0.184 0.232,-0.203C0.211,-0.222 0.192,-0.237 0.173,-0.25L0.173,-0L0.08,-0L0.08,-0.76L0.173,-0.776L0.173,-0.302C0.189,-0.318 0.207,-0.336 0.226,-0.355C0.245,-0.374 0.264,-0.394 0.283,-0.414C0.302,-0.434 0.319,-0.453 0.336,-0.471C0.353,-0.49 0.367,-0.506 0.379,-0.52L0.488,-0.52C0.473,-0.503 0.456,-0.485 0.438,-0.465C0.42,-0.445 0.401,-0.425 0.382,-0.405C0.363,-0.384 0.343,-0.364 0.324,-0.344C0.304,-0.323 0.285,-0.304 0.268,-0.286Z" style="fill:white;fill-rule:nonzero;"/>
            </g>
            <g transform="matrix(51.0878,0,0,51.0878,853.931,197.459)">
                <path d="M0.019,0.097C0.026,0.1 0.036,0.103 0.048,0.106C0.059,0.109 0.071,0.111 0.082,0.111C0.119,0.111 0.147,0.103 0.168,0.086C0.189,0.07 0.207,0.044 0.224,0.007C0.182,-0.073 0.143,-0.158 0.107,-0.248C0.07,-0.337 0.04,-0.428 0.016,-0.52L0.116,-0.52C0.123,-0.49 0.132,-0.458 0.142,-0.423C0.153,-0.388 0.164,-0.353 0.177,-0.316C0.19,-0.279 0.203,-0.243 0.218,-0.206C0.233,-0.169 0.248,-0.134 0.264,-0.1C0.289,-0.17 0.311,-0.239 0.33,-0.308C0.349,-0.377 0.366,-0.447 0.383,-0.52L0.479,-0.52C0.455,-0.422 0.428,-0.328 0.399,-0.237C0.37,-0.147 0.338,-0.063 0.304,0.016C0.291,0.046 0.277,0.072 0.263,0.093C0.248,0.115 0.232,0.133 0.215,0.147C0.198,0.161 0.178,0.171 0.157,0.178C0.135,0.185 0.11,0.188 0.083,0.188C0.076,0.188 0.068,0.187 0.06,0.186C0.052,0.185 0.044,0.184 0.037,0.182C0.029,0.181 0.022,0.179 0.016,0.177C0.009,0.175 0.005,0.173 0.002,0.172L0.019,0.097Z" style="fill:white;fill-rule:nonzero;"/>
            </g>
            <g transform="matrix(51.0878,0,0,51.0878,879.322,197.459)">
                <path d="M0.539,-0.26C0.539,-0.219 0.533,-0.181 0.521,-0.148C0.509,-0.115 0.492,-0.086 0.47,-0.062C0.449,-0.038 0.423,-0.02 0.393,-0.007C0.363,0.006 0.33,0.013 0.295,0.013C0.26,0.013 0.227,0.006 0.197,-0.007C0.167,-0.02 0.141,-0.038 0.119,-0.062C0.098,-0.086 0.081,-0.115 0.069,-0.148C0.057,-0.181 0.051,-0.219 0.051,-0.26C0.051,-0.301 0.057,-0.338 0.069,-0.372C0.081,-0.405 0.098,-0.434 0.119,-0.458C0.141,-0.482 0.167,-0.5 0.197,-0.514C0.227,-0.527 0.26,-0.533 0.295,-0.533C0.33,-0.533 0.363,-0.527 0.393,-0.514C0.423,-0.5 0.449,-0.482 0.47,-0.458C0.492,-0.434 0.509,-0.405 0.521,-0.372C0.533,-0.338 0.539,-0.301 0.539,-0.26ZM0.442,-0.26C0.442,-0.319 0.429,-0.365 0.403,-0.4C0.376,-0.434 0.34,-0.451 0.295,-0.451C0.25,-0.451 0.214,-0.434 0.188,-0.4C0.161,-0.365 0.148,-0.319 0.148,-0.26C0.148,-0.201 0.161,-0.155 0.188,-0.121C0.214,-0.086 0.25,-0.069 0.295,-0.069C0.34,-0.069 0.376,-0.086 0.403,-0.121C0.429,-0.155 0.442,-0.201 0.442,-0.26Z" style="fill:white;fill-rule:nonzero;"/>
            </g>
            <g transform="matrix(51.0878,0,0,51.0878,909.463,197.459)">
                <path d="M0.494,-0.015C0.473,-0.01 0.445,-0.004 0.409,0.002C0.375,0.008 0.334,0.011 0.288,0.011C0.248,0.011 0.214,0.005 0.187,-0.007C0.16,-0.018 0.138,-0.035 0.121,-0.056C0.104,-0.077 0.092,-0.102 0.085,-0.132C0.078,-0.161 0.074,-0.193 0.074,-0.228L0.074,-0.52L0.167,-0.52L0.167,-0.248C0.167,-0.185 0.177,-0.139 0.197,-0.112C0.217,-0.085 0.251,-0.071 0.298,-0.071C0.308,-0.071 0.318,-0.071 0.329,-0.072C0.34,-0.073 0.35,-0.074 0.359,-0.075C0.368,-0.076 0.377,-0.077 0.385,-0.078C0.392,-0.079 0.398,-0.08 0.401,-0.081L0.401,-0.52L0.494,-0.52L0.494,-0.015Z" style="fill:white;fill-rule:nonzero;"/>
            </g>
        </g>
    </g>
</svg>
