<?xml version="1.0" encoding="UTF-8" standalone="no"?>
<!DOCTYPE svg PUBLIC "-//W3C//DTD SVG 1.1//EN" "http://www.w3.org/Graphics/SVG/1.1/DTD/svg11.dtd">
<svg width="100%" height="30" viewBox="0 0 551 101" version="1.1" xmlns="http://www.w3.org/2000/svg" xmlns:xlink="http://www.w3.org/1999/xlink" xml:space="preserve" xmlns:serif="http://www.serif.com/" style="fill-rule:evenodd;clip-rule:evenodd;stroke-linejoin:round;stroke-miterlimit:2;">
    <g transform="matrix(1,0,0,1,-5.68434e-14,25.1529)">
        <path d="M534.826,25.347C534.826,22.761 532.726,20.661 530.14,20.661L20.86,20.661C18.274,20.661 16.174,22.761 16.174,25.347C16.174,27.933 18.274,30.033 20.86,30.033L530.14,30.033C532.726,30.033 534.826,27.933 534.826,25.347Z" style="fill:rgb(0,187,134);"/>
    </g>
    <g transform="matrix(1,0,0,1,-13.3654,-0.000114787)">
        <g transform="matrix(0.0930286,0.0537101,-0.0537101,0.0930286,237.439,-112.046)">
            <path d="M1112.14,649.594C1148.68,628.496 1193.71,628.496 1230.25,649.594C1304.77,692.617 1432.17,766.173 1506.69,809.196C1543.23,830.294 1565.74,869.286 1565.74,911.482L1565.74,1230.68C1565.74,1272.88 1543.23,1311.87 1506.69,1332.97C1432.17,1375.99 1304.77,1449.55 1230.25,1492.57C1193.71,1513.67 1148.68,1513.67 1112.14,1492.57C1037.62,1449.55 910.219,1375.99 835.702,1332.97C799.158,1311.87 776.647,1272.88 776.647,1230.68L776.647,911.482C776.647,869.286 799.158,830.294 835.702,809.196C910.219,766.173 1037.62,692.617 1112.14,649.594Z" style="fill:rgb(0,187,134);"/>
        </g>
        <g transform="matrix(1.85133e-17,-0.111143,0.186855,3.70888e-17,107.998,176.109)">
            <path d="M926.855,1005.11C907.941,1005.11 892.609,995.986 892.609,984.736L892.609,951.167C892.609,939.917 907.941,930.797 926.855,930.797L1063.26,930.797C1066.69,930.797 1069.94,929.882 1072.1,928.303C1074.27,926.724 1075.13,924.65 1074.45,922.652C1070.58,911.362 1063.28,890.039 1056.31,869.684C1053.51,861.499 1059.39,853.127 1071.14,848.561C1082.9,843.995 1098.15,844.161 1109.62,848.98C1182.7,879.685 1294.29,926.566 1353.19,951.314C1362.28,955.131 1367.68,961.335 1367.68,967.951C1367.68,974.568 1362.28,980.772 1353.19,984.589C1294.29,1009.34 1182.7,1056.22 1109.62,1086.92C1098.15,1091.74 1082.9,1091.91 1071.14,1087.34C1059.39,1082.78 1053.51,1074.4 1056.31,1066.22C1063.28,1045.86 1070.58,1024.54 1074.45,1013.25C1075.13,1011.25 1074.27,1009.18 1072.1,1007.6C1069.94,1006.02 1066.69,1005.11 1063.26,1005.11L926.855,1005.11Z" style="fill:white;"/>
        </g>
    </g>
</svg>
