<?xml version="1.0" encoding="UTF-8" standalone="no"?>
<!DOCTYPE svg PUBLIC "-//W3C//DTD SVG 1.1//EN" "http://www.w3.org/Graphics/SVG/1.1/DTD/svg11.dtd">
<svg width="100%" height="100%" viewBox="0 0 551 101" version="1.1" xmlns="http://www.w3.org/2000/svg" xmlns:xlink="http://www.w3.org/1999/xlink" xml:space="preserve" xmlns:serif="http://www.serif.com/" style="fill-rule:evenodd;clip-rule:evenodd;stroke-linejoin:round;stroke-miterlimit:2;">
    <g transform="matrix(1.03336,0,0,1.03336,-64.9285,1.6054)">
        <g transform="matrix(61.3074,0,0,61.3074,171.12,52.346)">
            <path d="M0.283,-0.701C0.387,-0.701 0.467,-0.683 0.522,-0.646C0.577,-0.608 0.605,-0.551 0.605,-0.473C0.605,-0.424 0.594,-0.385 0.572,-0.355C0.549,-0.324 0.517,-0.3 0.475,-0.283C0.489,-0.266 0.504,-0.246 0.519,-0.224C0.534,-0.201 0.55,-0.178 0.565,-0.154C0.58,-0.129 0.594,-0.104 0.608,-0.078C0.622,-0.051 0.635,-0.025 0.647,-0L0.472,-0C0.459,-0.023 0.447,-0.046 0.434,-0.069C0.421,-0.092 0.407,-0.115 0.394,-0.137C0.38,-0.159 0.366,-0.18 0.353,-0.2C0.34,-0.219 0.326,-0.237 0.313,-0.253L0.236,-0.253L0.236,-0L0.08,-0L0.08,-0.683C0.114,-0.69 0.149,-0.694 0.186,-0.697C0.222,-0.7 0.254,-0.701 0.283,-0.701ZM0.292,-0.568C0.281,-0.568 0.271,-0.568 0.262,-0.567C0.253,-0.566 0.244,-0.566 0.236,-0.565L0.236,-0.377L0.28,-0.377C0.339,-0.377 0.381,-0.384 0.406,-0.399C0.431,-0.414 0.444,-0.439 0.444,-0.474C0.444,-0.508 0.431,-0.532 0.406,-0.547C0.38,-0.561 0.342,-0.568 0.292,-0.568Z" style="fill:rgb(33,177,115);fill-rule:nonzero;"/>
        </g>
        <g transform="matrix(61.3074,0,0,61.3074,210.479,52.346)">
            <path d="M0.562,-0.264C0.562,-0.223 0.556,-0.185 0.544,-0.151C0.532,-0.116 0.515,-0.087 0.492,-0.063C0.469,-0.038 0.442,-0.019 0.411,-0.006C0.379,0.007 0.343,0.014 0.304,0.014C0.265,0.014 0.23,0.007 0.199,-0.006C0.167,-0.019 0.14,-0.038 0.117,-0.063C0.094,-0.087 0.077,-0.116 0.064,-0.151C0.051,-0.185 0.045,-0.223 0.045,-0.264C0.045,-0.305 0.051,-0.343 0.065,-0.377C0.078,-0.411 0.096,-0.44 0.119,-0.464C0.141,-0.488 0.169,-0.507 0.201,-0.52C0.232,-0.533 0.267,-0.54 0.304,-0.54C0.342,-0.54 0.377,-0.533 0.409,-0.52C0.44,-0.507 0.467,-0.488 0.49,-0.464C0.513,-0.44 0.53,-0.411 0.543,-0.377C0.556,-0.343 0.562,-0.305 0.562,-0.264ZM0.41,-0.264C0.41,-0.31 0.401,-0.346 0.383,-0.373C0.364,-0.399 0.338,-0.412 0.304,-0.412C0.27,-0.412 0.244,-0.399 0.225,-0.373C0.206,-0.346 0.197,-0.31 0.197,-0.264C0.197,-0.218 0.206,-0.182 0.225,-0.155C0.244,-0.128 0.27,-0.114 0.304,-0.114C0.338,-0.114 0.364,-0.128 0.383,-0.155C0.401,-0.182 0.41,-0.218 0.41,-0.264Z" style="fill:rgb(33,177,115);fill-rule:nonzero;"/>
        </g>
        <g transform="matrix(61.3074,0,0,61.3074,247.693,52.346)">
            <path d="M0.045,-0.263C0.045,-0.301 0.051,-0.337 0.064,-0.371C0.076,-0.404 0.094,-0.434 0.117,-0.459C0.14,-0.484 0.169,-0.503 0.202,-0.518C0.235,-0.533 0.273,-0.54 0.316,-0.54C0.344,-0.54 0.37,-0.538 0.393,-0.533C0.416,-0.528 0.439,-0.52 0.461,-0.511L0.43,-0.392C0.416,-0.397 0.401,-0.402 0.384,-0.406C0.367,-0.41 0.349,-0.412 0.328,-0.412C0.284,-0.412 0.251,-0.398 0.23,-0.371C0.208,-0.344 0.197,-0.308 0.197,-0.263C0.197,-0.216 0.207,-0.179 0.228,-0.153C0.248,-0.127 0.283,-0.114 0.334,-0.114C0.352,-0.114 0.371,-0.116 0.392,-0.119C0.413,-0.122 0.432,-0.128 0.449,-0.135L0.47,-0.013C0.453,-0.006 0.431,0.001 0.405,0.006C0.379,0.011 0.35,0.014 0.319,0.014C0.271,0.014 0.23,0.007 0.195,-0.008C0.16,-0.022 0.132,-0.041 0.11,-0.066C0.087,-0.091 0.071,-0.12 0.061,-0.154C0.05,-0.187 0.045,-0.224 0.045,-0.263Z" style="fill:rgb(33,177,115);fill-rule:nonzero;"/>
        </g>
        <g transform="matrix(61.3074,0,0,61.3074,278.346,52.346)">
            <path d="M0.219,-0.336C0.234,-0.352 0.249,-0.369 0.265,-0.386C0.28,-0.403 0.295,-0.421 0.31,-0.438C0.325,-0.455 0.339,-0.471 0.352,-0.486C0.365,-0.501 0.376,-0.515 0.385,-0.526L0.562,-0.526C0.527,-0.485 0.492,-0.447 0.459,-0.41C0.425,-0.373 0.388,-0.334 0.348,-0.295C0.368,-0.277 0.389,-0.256 0.41,-0.231C0.431,-0.206 0.452,-0.18 0.472,-0.153C0.492,-0.126 0.51,-0.1 0.527,-0.073C0.544,-0.046 0.558,-0.022 0.569,-0L0.398,-0C0.387,-0.017 0.375,-0.037 0.362,-0.058C0.348,-0.079 0.333,-0.099 0.318,-0.121C0.303,-0.141 0.286,-0.162 0.27,-0.181C0.253,-0.2 0.236,-0.217 0.219,-0.23L0.219,-0L0.07,-0L0.07,-0.752L0.219,-0.776L0.219,-0.336Z" style="fill:rgb(33,177,115);fill-rule:nonzero;"/>
        </g>
        <g transform="matrix(61.3074,0,0,61.3074,313.843,52.346)">
            <path d="M0.08,-0L0.08,-0.693L0.544,-0.693L0.544,-0.562L0.236,-0.562L0.236,-0.417L0.51,-0.417L0.51,-0.286L0.236,-0.286L0.236,-0L0.08,-0Z" style="fill:rgb(33,177,115);fill-rule:nonzero;"/>
        </g>
        <g transform="matrix(61.3074,0,0,61.3074,347.808,52.346)">
            <path d="M0.387,-0.394C0.374,-0.397 0.358,-0.401 0.34,-0.405C0.322,-0.408 0.303,-0.41 0.282,-0.41C0.273,-0.41 0.262,-0.409 0.249,-0.408C0.236,-0.406 0.226,-0.404 0.219,-0.402L0.219,-0L0.07,-0L0.07,-0.498C0.097,-0.507 0.128,-0.516 0.165,-0.525C0.201,-0.533 0.241,-0.537 0.286,-0.537C0.294,-0.537 0.304,-0.537 0.315,-0.536C0.326,-0.535 0.338,-0.533 0.349,-0.532C0.36,-0.53 0.372,-0.528 0.383,-0.526C0.394,-0.523 0.404,-0.52 0.412,-0.517L0.387,-0.394Z" style="fill:rgb(33,177,115);fill-rule:nonzero;"/>
        </g>
        <g transform="matrix(61.3074,0,0,61.3074,373.066,52.346)">
            <path d="M0.562,-0.264C0.562,-0.223 0.556,-0.185 0.544,-0.151C0.532,-0.116 0.515,-0.087 0.492,-0.063C0.469,-0.038 0.442,-0.019 0.411,-0.006C0.379,0.007 0.343,0.014 0.304,0.014C0.265,0.014 0.23,0.007 0.199,-0.006C0.167,-0.019 0.14,-0.038 0.117,-0.063C0.094,-0.087 0.077,-0.116 0.064,-0.151C0.051,-0.185 0.045,-0.223 0.045,-0.264C0.045,-0.305 0.051,-0.343 0.065,-0.377C0.078,-0.411 0.096,-0.44 0.119,-0.464C0.141,-0.488 0.169,-0.507 0.201,-0.52C0.232,-0.533 0.267,-0.54 0.304,-0.54C0.342,-0.54 0.377,-0.533 0.409,-0.52C0.44,-0.507 0.467,-0.488 0.49,-0.464C0.513,-0.44 0.53,-0.411 0.543,-0.377C0.556,-0.343 0.562,-0.305 0.562,-0.264ZM0.41,-0.264C0.41,-0.31 0.401,-0.346 0.383,-0.373C0.364,-0.399 0.338,-0.412 0.304,-0.412C0.27,-0.412 0.244,-0.399 0.225,-0.373C0.206,-0.346 0.197,-0.31 0.197,-0.264C0.197,-0.218 0.206,-0.182 0.225,-0.155C0.244,-0.128 0.27,-0.114 0.304,-0.114C0.338,-0.114 0.364,-0.128 0.383,-0.155C0.401,-0.182 0.41,-0.218 0.41,-0.264Z" style="fill:rgb(33,177,115);fill-rule:nonzero;"/>
        </g>
        <g transform="matrix(61.3074,0,0,61.3074,410.28,52.346)">
            <path d="M0.07,-0.508C0.095,-0.515 0.128,-0.522 0.168,-0.529C0.208,-0.535 0.25,-0.538 0.294,-0.538C0.339,-0.538 0.376,-0.532 0.406,-0.521C0.435,-0.509 0.459,-0.492 0.476,-0.471C0.493,-0.45 0.506,-0.424 0.513,-0.395C0.52,-0.366 0.524,-0.333 0.524,-0.297L0.524,-0L0.375,-0L0.375,-0.279C0.375,-0.327 0.369,-0.361 0.356,-0.381C0.343,-0.401 0.32,-0.411 0.285,-0.411C0.274,-0.411 0.263,-0.411 0.251,-0.41C0.239,-0.409 0.228,-0.407 0.219,-0.406L0.219,-0L0.07,-0L0.07,-0.508Z" style="fill:rgb(33,177,115);fill-rule:nonzero;"/>
        </g>
        <g transform="matrix(61.3074,0,0,61.3074,446.39,52.346)">
            <path d="M0.065,-0.657L0.214,-0.681L0.214,-0.526L0.393,-0.526L0.393,-0.402L0.214,-0.402L0.214,-0.217C0.214,-0.186 0.22,-0.161 0.231,-0.142C0.242,-0.123 0.264,-0.114 0.297,-0.114C0.313,-0.114 0.33,-0.116 0.347,-0.119C0.364,-0.122 0.379,-0.126 0.393,-0.131L0.414,-0.015C0.396,-0.008 0.376,-0.001 0.354,0.004C0.332,0.009 0.305,0.012 0.273,0.012C0.232,0.012 0.199,0.007 0.172,-0.005C0.145,-0.016 0.124,-0.031 0.108,-0.051C0.092,-0.07 0.081,-0.094 0.075,-0.122C0.068,-0.15 0.065,-0.181 0.065,-0.215L0.065,-0.657Z" style="fill:rgb(33,177,115);fill-rule:nonzero;"/>
        </g>
        <g transform="matrix(61.3074,0,0,61.3074,472.384,52.346)">
            <path d="M0.045,-0.259C0.045,-0.306 0.052,-0.347 0.067,-0.382C0.081,-0.417 0.1,-0.446 0.123,-0.469C0.146,-0.492 0.173,-0.51 0.204,-0.522C0.234,-0.534 0.265,-0.54 0.297,-0.54C0.372,-0.54 0.431,-0.517 0.474,-0.472C0.517,-0.426 0.539,-0.359 0.539,-0.27C0.539,-0.261 0.539,-0.252 0.538,-0.242C0.537,-0.231 0.537,-0.222 0.536,-0.214L0.198,-0.214C0.201,-0.183 0.216,-0.159 0.241,-0.141C0.266,-0.123 0.3,-0.114 0.343,-0.114C0.37,-0.114 0.397,-0.117 0.424,-0.122C0.45,-0.127 0.471,-0.133 0.488,-0.14L0.508,-0.019C0.5,-0.015 0.489,-0.011 0.476,-0.007C0.463,-0.003 0.448,0.001 0.432,0.004C0.415,0.007 0.398,0.009 0.379,0.011C0.36,0.013 0.342,0.014 0.323,0.014C0.276,0.014 0.235,0.007 0.2,-0.007C0.165,-0.021 0.135,-0.04 0.113,-0.065C0.09,-0.089 0.073,-0.118 0.062,-0.151C0.05,-0.184 0.045,-0.22 0.045,-0.259ZM0.395,-0.316C0.394,-0.329 0.392,-0.341 0.389,-0.353C0.385,-0.365 0.379,-0.376 0.372,-0.385C0.364,-0.394 0.354,-0.402 0.343,-0.408C0.331,-0.414 0.316,-0.417 0.299,-0.417C0.282,-0.417 0.268,-0.414 0.256,-0.409C0.244,-0.403 0.234,-0.395 0.226,-0.386C0.218,-0.377 0.212,-0.366 0.208,-0.354C0.203,-0.341 0.2,-0.329 0.198,-0.316L0.395,-0.316Z" style="fill:rgb(33,177,115);fill-rule:nonzero;"/>
        </g>
        <g transform="matrix(61.3074,0,0,61.3074,508.188,52.346)">
            <path d="M0.07,-0.508C0.095,-0.515 0.128,-0.522 0.168,-0.529C0.208,-0.535 0.25,-0.538 0.294,-0.538C0.339,-0.538 0.376,-0.532 0.406,-0.521C0.435,-0.509 0.459,-0.492 0.476,-0.471C0.493,-0.45 0.506,-0.424 0.513,-0.395C0.52,-0.366 0.524,-0.333 0.524,-0.297L0.524,-0L0.375,-0L0.375,-0.279C0.375,-0.327 0.369,-0.361 0.356,-0.381C0.343,-0.401 0.32,-0.411 0.285,-0.411C0.274,-0.411 0.263,-0.411 0.251,-0.41C0.239,-0.409 0.228,-0.407 0.219,-0.406L0.219,-0L0.07,-0L0.07,-0.508Z" style="fill:rgb(33,177,115);fill-rule:nonzero;"/>
        </g>
        <g transform="matrix(61.3074,0,0,61.3074,544.298,52.346)">
            <path d="M0.197,-0.267C0.197,-0.221 0.207,-0.184 0.228,-0.156C0.249,-0.128 0.279,-0.114 0.32,-0.114C0.333,-0.114 0.346,-0.115 0.357,-0.116C0.368,-0.117 0.378,-0.118 0.385,-0.119L0.385,-0.39C0.376,-0.396 0.364,-0.401 0.349,-0.405C0.334,-0.409 0.318,-0.411 0.303,-0.411C0.232,-0.411 0.197,-0.363 0.197,-0.267ZM0.534,-0.017C0.521,-0.013 0.505,-0.009 0.488,-0.006C0.471,-0.002 0.452,0.001 0.434,0.004C0.415,0.007 0.395,0.009 0.376,0.011C0.356,0.012 0.337,0.013 0.319,0.013C0.276,0.013 0.237,0.007 0.203,-0.006C0.169,-0.019 0.14,-0.037 0.117,-0.061C0.094,-0.084 0.076,-0.113 0.064,-0.147C0.051,-0.18 0.045,-0.218 0.045,-0.26C0.045,-0.303 0.05,-0.341 0.061,-0.376C0.072,-0.41 0.087,-0.439 0.107,-0.463C0.127,-0.487 0.152,-0.505 0.181,-0.518C0.21,-0.531 0.243,-0.537 0.28,-0.537C0.301,-0.537 0.319,-0.535 0.336,-0.531C0.352,-0.527 0.368,-0.521 0.385,-0.514L0.385,-0.752L0.534,-0.776L0.534,-0.017Z" style="fill:rgb(33,177,115);fill-rule:nonzero;"/>
        </g>
    </g>
    <g transform="matrix(0.431658,0,0,0.431658,41.2503,66.3742)">
        <g transform="matrix(61.3074,0,0,61.3074,171.12,52.346)">
            <path d="M0.407,-0.267C0.407,-0.363 0.372,-0.411 0.301,-0.411C0.286,-0.411 0.271,-0.409 0.256,-0.405C0.241,-0.401 0.228,-0.396 0.219,-0.39L0.219,-0.119C0.226,-0.118 0.236,-0.117 0.247,-0.116C0.258,-0.115 0.271,-0.114 0.284,-0.114C0.325,-0.114 0.355,-0.128 0.376,-0.156C0.397,-0.184 0.407,-0.221 0.407,-0.267ZM0.559,-0.263C0.559,-0.221 0.553,-0.183 0.541,-0.149C0.528,-0.115 0.51,-0.086 0.487,-0.062C0.464,-0.038 0.435,-0.02 0.401,-0.007C0.367,0.007 0.328,0.013 0.285,0.013C0.267,0.013 0.248,0.012 0.229,0.011C0.209,0.009 0.19,0.007 0.171,0.004C0.152,0.001 0.133,-0.002 0.116,-0.006C0.099,-0.009 0.083,-0.013 0.07,-0.017L0.07,-0.752L0.219,-0.776L0.219,-0.514C0.236,-0.521 0.253,-0.527 0.271,-0.531C0.289,-0.535 0.308,-0.537 0.329,-0.537C0.366,-0.537 0.399,-0.531 0.428,-0.518C0.457,-0.505 0.481,-0.486 0.5,-0.462C0.519,-0.438 0.534,-0.409 0.544,-0.376C0.554,-0.342 0.559,-0.304 0.559,-0.263Z" style="fill:rgb(10,19,28);fill-rule:nonzero;"/>
        </g>
        <g transform="matrix(61.3074,0,0,61.3074,207.291,52.346)">
            <path d="M0.537,-0.526C0.507,-0.425 0.476,-0.33 0.443,-0.241C0.41,-0.152 0.375,-0.066 0.336,0.017C0.322,0.047 0.308,0.073 0.294,0.094C0.28,0.115 0.265,0.132 0.248,0.146C0.231,0.159 0.213,0.169 0.192,0.176C0.171,0.182 0.146,0.185 0.118,0.185C0.095,0.185 0.073,0.183 0.054,0.179C0.034,0.174 0.018,0.169 0.005,0.164L0.031,0.045C0.046,0.05 0.06,0.054 0.072,0.056C0.084,0.058 0.097,0.059 0.11,0.059C0.137,0.059 0.157,0.052 0.172,0.038C0.186,0.023 0.198,0.003 0.208,-0.022C0.174,-0.089 0.14,-0.164 0.106,-0.247C0.072,-0.329 0.04,-0.423 0.01,-0.526L0.168,-0.526C0.175,-0.5 0.183,-0.472 0.192,-0.442C0.201,-0.411 0.21,-0.381 0.22,-0.35C0.23,-0.319 0.24,-0.288 0.251,-0.259C0.261,-0.23 0.271,-0.203 0.28,-0.179C0.289,-0.203 0.298,-0.23 0.307,-0.259C0.316,-0.288 0.326,-0.319 0.335,-0.35C0.343,-0.381 0.352,-0.411 0.361,-0.442C0.369,-0.472 0.376,-0.5 0.383,-0.526L0.537,-0.526Z" style="fill:rgb(10,19,28);fill-rule:nonzero;"/>
        </g>
        <g transform="matrix(61.3074,0,0,61.3074,255.54,52.346)">
            <path d="M0.407,-0.267C0.407,-0.363 0.372,-0.411 0.301,-0.411C0.286,-0.411 0.271,-0.409 0.256,-0.405C0.241,-0.401 0.228,-0.396 0.219,-0.39L0.219,-0.119C0.226,-0.118 0.236,-0.117 0.247,-0.116C0.258,-0.115 0.271,-0.114 0.284,-0.114C0.325,-0.114 0.355,-0.128 0.376,-0.156C0.397,-0.184 0.407,-0.221 0.407,-0.267ZM0.559,-0.263C0.559,-0.221 0.553,-0.183 0.541,-0.149C0.528,-0.115 0.51,-0.086 0.487,-0.062C0.464,-0.038 0.435,-0.02 0.401,-0.007C0.367,0.007 0.328,0.013 0.285,0.013C0.267,0.013 0.248,0.012 0.229,0.011C0.209,0.009 0.19,0.007 0.171,0.004C0.152,0.001 0.133,-0.002 0.116,-0.006C0.099,-0.009 0.083,-0.013 0.07,-0.017L0.07,-0.752L0.219,-0.776L0.219,-0.514C0.236,-0.521 0.253,-0.527 0.271,-0.531C0.289,-0.535 0.308,-0.537 0.329,-0.537C0.366,-0.537 0.399,-0.531 0.428,-0.518C0.457,-0.505 0.481,-0.486 0.5,-0.462C0.519,-0.438 0.534,-0.409 0.544,-0.376C0.554,-0.342 0.559,-0.304 0.559,-0.263Z" style="fill:rgb(10,19,28);fill-rule:nonzero;"/>
        </g>
        <g transform="matrix(61.3074,0,0,61.3074,292.57,52.346)">
            <path d="M0.271,-0.104C0.286,-0.104 0.3,-0.104 0.313,-0.105C0.326,-0.106 0.337,-0.107 0.345,-0.108L0.345,-0.221C0.339,-0.222 0.33,-0.224 0.318,-0.225C0.306,-0.226 0.295,-0.227 0.285,-0.227C0.271,-0.227 0.258,-0.226 0.246,-0.225C0.233,-0.223 0.222,-0.22 0.213,-0.215C0.204,-0.21 0.196,-0.204 0.191,-0.196C0.186,-0.188 0.183,-0.178 0.183,-0.166C0.183,-0.143 0.191,-0.127 0.207,-0.118C0.222,-0.109 0.244,-0.104 0.271,-0.104ZM0.259,-0.54C0.303,-0.54 0.34,-0.535 0.369,-0.525C0.398,-0.515 0.422,-0.501 0.44,-0.482C0.457,-0.463 0.47,-0.441 0.477,-0.414C0.484,-0.387 0.488,-0.358 0.488,-0.325L0.488,-0.015C0.467,-0.01 0.437,-0.005 0.399,0.002C0.361,0.008 0.315,0.011 0.261,0.011C0.227,0.011 0.196,0.008 0.169,0.002C0.141,-0.004 0.117,-0.014 0.097,-0.028C0.077,-0.041 0.062,-0.059 0.051,-0.081C0.04,-0.103 0.035,-0.13 0.035,-0.162C0.035,-0.193 0.041,-0.219 0.054,-0.24C0.066,-0.261 0.082,-0.278 0.103,-0.291C0.124,-0.304 0.147,-0.313 0.174,-0.319C0.201,-0.324 0.228,-0.327 0.257,-0.327C0.276,-0.327 0.294,-0.326 0.309,-0.325C0.324,-0.323 0.336,-0.321 0.345,-0.318L0.345,-0.332C0.345,-0.357 0.337,-0.378 0.322,-0.393C0.307,-0.408 0.28,-0.416 0.242,-0.416C0.217,-0.416 0.192,-0.414 0.167,-0.411C0.142,-0.407 0.121,-0.402 0.103,-0.395L0.084,-0.515C0.093,-0.518 0.103,-0.521 0.117,-0.524C0.13,-0.527 0.144,-0.529 0.159,-0.532C0.174,-0.534 0.191,-0.536 0.208,-0.538C0.225,-0.539 0.242,-0.54 0.259,-0.54Z" style="fill:rgb(10,19,28);fill-rule:nonzero;"/>
        </g>
        <g transform="matrix(61.3074,0,0,61.3074,326.473,52.346)">
            <path d="M0.519,-0.018C0.494,-0.011 0.461,-0.004 0.421,0.003C0.381,0.009 0.339,0.012 0.295,0.012C0.25,0.012 0.213,0.006 0.184,-0.006C0.154,-0.018 0.13,-0.035 0.113,-0.057C0.096,-0.078 0.083,-0.104 0.076,-0.134C0.069,-0.164 0.065,-0.197 0.065,-0.233L0.065,-0.526L0.214,-0.526L0.214,-0.251C0.214,-0.203 0.22,-0.168 0.233,-0.147C0.246,-0.126 0.269,-0.115 0.304,-0.115C0.315,-0.115 0.326,-0.116 0.338,-0.117C0.35,-0.118 0.361,-0.119 0.37,-0.12L0.37,-0.526L0.519,-0.526L0.519,-0.018Z" style="fill:rgb(10,19,28);fill-rule:nonzero;"/>
        </g>
        <g transform="matrix(61.3074,0,0,61.3074,362.583,52.346)">
            <path d="M0.359,-0.279C0.359,-0.327 0.353,-0.361 0.341,-0.381C0.328,-0.401 0.307,-0.411 0.277,-0.411C0.268,-0.411 0.258,-0.411 0.248,-0.41C0.238,-0.409 0.228,-0.407 0.219,-0.406L0.219,-0L0.07,-0L0.07,-0.508C0.083,-0.511 0.097,-0.515 0.115,-0.519C0.132,-0.522 0.15,-0.526 0.169,-0.529C0.188,-0.532 0.207,-0.534 0.227,-0.536C0.247,-0.537 0.267,-0.538 0.286,-0.538C0.324,-0.538 0.355,-0.533 0.379,-0.524C0.402,-0.514 0.422,-0.502 0.437,-0.489C0.458,-0.504 0.483,-0.516 0.511,-0.525C0.538,-0.534 0.564,-0.538 0.587,-0.538C0.629,-0.538 0.664,-0.532 0.691,-0.521C0.717,-0.509 0.739,-0.492 0.755,-0.471C0.771,-0.45 0.782,-0.424 0.788,-0.395C0.794,-0.366 0.797,-0.333 0.797,-0.297L0.797,-0L0.648,-0L0.648,-0.279C0.648,-0.327 0.642,-0.361 0.63,-0.381C0.617,-0.401 0.596,-0.411 0.566,-0.411C0.558,-0.411 0.547,-0.409 0.533,-0.405C0.518,-0.401 0.506,-0.396 0.497,-0.39C0.502,-0.375 0.505,-0.359 0.506,-0.342C0.507,-0.325 0.508,-0.306 0.508,-0.287L0.508,-0L0.359,-0L0.359,-0.279Z" style="fill:rgb(10,19,28);fill-rule:nonzero;"/>
        </g>
        <g transform="matrix(61.3074,0,0,61.3074,415.43,52.346)">
            <path d="M0.387,-0.394C0.374,-0.397 0.358,-0.401 0.34,-0.405C0.322,-0.408 0.303,-0.41 0.282,-0.41C0.273,-0.41 0.262,-0.409 0.249,-0.408C0.236,-0.406 0.226,-0.404 0.219,-0.402L0.219,-0L0.07,-0L0.07,-0.498C0.097,-0.507 0.128,-0.516 0.165,-0.525C0.201,-0.533 0.241,-0.537 0.286,-0.537C0.294,-0.537 0.304,-0.537 0.315,-0.536C0.326,-0.535 0.338,-0.533 0.349,-0.532C0.36,-0.53 0.372,-0.528 0.383,-0.526C0.394,-0.523 0.404,-0.52 0.412,-0.517L0.387,-0.394Z" style="fill:rgb(10,19,28);fill-rule:nonzero;"/>
        </g>
        <g transform="matrix(61.3074,0,0,61.3074,440.688,52.346)">
            <path d="M0.562,-0.264C0.562,-0.223 0.556,-0.185 0.544,-0.151C0.532,-0.116 0.515,-0.087 0.492,-0.063C0.469,-0.038 0.442,-0.019 0.411,-0.006C0.379,0.007 0.343,0.014 0.304,0.014C0.265,0.014 0.23,0.007 0.199,-0.006C0.167,-0.019 0.14,-0.038 0.117,-0.063C0.094,-0.087 0.077,-0.116 0.064,-0.151C0.051,-0.185 0.045,-0.223 0.045,-0.264C0.045,-0.305 0.051,-0.343 0.065,-0.377C0.078,-0.411 0.096,-0.44 0.119,-0.464C0.141,-0.488 0.169,-0.507 0.201,-0.52C0.232,-0.533 0.267,-0.54 0.304,-0.54C0.342,-0.54 0.377,-0.533 0.409,-0.52C0.44,-0.507 0.467,-0.488 0.49,-0.464C0.513,-0.44 0.53,-0.411 0.543,-0.377C0.556,-0.343 0.562,-0.305 0.562,-0.264ZM0.41,-0.264C0.41,-0.31 0.401,-0.346 0.383,-0.373C0.364,-0.399 0.338,-0.412 0.304,-0.412C0.27,-0.412 0.244,-0.399 0.225,-0.373C0.206,-0.346 0.197,-0.31 0.197,-0.264C0.197,-0.218 0.206,-0.182 0.225,-0.155C0.244,-0.128 0.27,-0.114 0.304,-0.114C0.338,-0.114 0.364,-0.128 0.383,-0.155C0.401,-0.182 0.41,-0.218 0.41,-0.264Z" style="fill:rgb(10,19,28);fill-rule:nonzero;"/>
        </g>
        <g transform="matrix(61.3074,0,0,61.3074,477.902,52.346)">
            <path d="M0.045,-0.263C0.045,-0.301 0.051,-0.337 0.064,-0.371C0.076,-0.404 0.094,-0.434 0.117,-0.459C0.14,-0.484 0.169,-0.503 0.202,-0.518C0.235,-0.533 0.273,-0.54 0.316,-0.54C0.344,-0.54 0.37,-0.538 0.393,-0.533C0.416,-0.528 0.439,-0.52 0.461,-0.511L0.43,-0.392C0.416,-0.397 0.401,-0.402 0.384,-0.406C0.367,-0.41 0.349,-0.412 0.328,-0.412C0.284,-0.412 0.251,-0.398 0.23,-0.371C0.208,-0.344 0.197,-0.308 0.197,-0.263C0.197,-0.216 0.207,-0.179 0.228,-0.153C0.248,-0.127 0.283,-0.114 0.334,-0.114C0.352,-0.114 0.371,-0.116 0.392,-0.119C0.413,-0.122 0.432,-0.128 0.449,-0.135L0.47,-0.013C0.453,-0.006 0.431,0.001 0.405,0.006C0.379,0.011 0.35,0.014 0.319,0.014C0.271,0.014 0.23,0.007 0.195,-0.008C0.16,-0.022 0.132,-0.041 0.11,-0.066C0.087,-0.091 0.071,-0.12 0.061,-0.154C0.05,-0.187 0.045,-0.224 0.045,-0.263Z" style="fill:rgb(10,19,28);fill-rule:nonzero;"/>
        </g>
        <g transform="matrix(61.3074,0,0,61.3074,508.556,52.346)">
            <path d="M0.219,-0.336C0.234,-0.352 0.249,-0.369 0.265,-0.386C0.28,-0.403 0.295,-0.421 0.31,-0.438C0.325,-0.455 0.339,-0.471 0.352,-0.486C0.365,-0.501 0.376,-0.515 0.385,-0.526L0.562,-0.526C0.527,-0.485 0.492,-0.447 0.459,-0.41C0.425,-0.373 0.388,-0.334 0.348,-0.295C0.368,-0.277 0.389,-0.256 0.41,-0.231C0.431,-0.206 0.452,-0.18 0.472,-0.153C0.492,-0.126 0.51,-0.1 0.527,-0.073C0.544,-0.046 0.558,-0.022 0.569,-0L0.398,-0C0.387,-0.017 0.375,-0.037 0.362,-0.058C0.348,-0.079 0.333,-0.099 0.318,-0.121C0.303,-0.141 0.286,-0.162 0.27,-0.181C0.253,-0.2 0.236,-0.217 0.219,-0.23L0.219,-0L0.07,-0L0.07,-0.752L0.219,-0.776L0.219,-0.336Z" style="fill:rgb(10,19,28);fill-rule:nonzero;"/>
        </g>
        <g transform="matrix(61.3074,0,0,61.3074,544.788,52.346)">
            <path d="M0.216,-0.079C0.216,-0.049 0.206,-0.026 0.188,-0.011C0.169,0.005 0.147,0.013 0.123,0.013C0.099,0.013 0.078,0.005 0.059,-0.011C0.04,-0.026 0.03,-0.049 0.03,-0.079C0.03,-0.109 0.04,-0.132 0.059,-0.148C0.078,-0.163 0.099,-0.171 0.123,-0.171C0.147,-0.171 0.169,-0.163 0.188,-0.148C0.206,-0.132 0.216,-0.109 0.216,-0.079Z" style="fill:rgb(10,19,28);fill-rule:nonzero;"/>
        </g>
        <g transform="matrix(61.3074,0,0,61.3074,558.031,52.346)">
            <path d="M0.045,-0.263C0.045,-0.301 0.051,-0.337 0.064,-0.371C0.076,-0.404 0.094,-0.434 0.117,-0.459C0.14,-0.484 0.169,-0.503 0.202,-0.518C0.235,-0.533 0.273,-0.54 0.316,-0.54C0.344,-0.54 0.37,-0.538 0.393,-0.533C0.416,-0.528 0.439,-0.52 0.461,-0.511L0.43,-0.392C0.416,-0.397 0.401,-0.402 0.384,-0.406C0.367,-0.41 0.349,-0.412 0.328,-0.412C0.284,-0.412 0.251,-0.398 0.23,-0.371C0.208,-0.344 0.197,-0.308 0.197,-0.263C0.197,-0.216 0.207,-0.179 0.228,-0.153C0.248,-0.127 0.283,-0.114 0.334,-0.114C0.352,-0.114 0.371,-0.116 0.392,-0.119C0.413,-0.122 0.432,-0.128 0.449,-0.135L0.47,-0.013C0.453,-0.006 0.431,0.001 0.405,0.006C0.379,0.011 0.35,0.014 0.319,0.014C0.271,0.014 0.23,0.007 0.195,-0.008C0.16,-0.022 0.132,-0.041 0.11,-0.066C0.087,-0.091 0.071,-0.12 0.061,-0.154C0.05,-0.187 0.045,-0.224 0.045,-0.263Z" style="fill:rgb(10,19,28);fill-rule:nonzero;"/>
        </g>
        <g transform="matrix(61.3074,0,0,61.3074,587.152,52.346)">
            <path d="M0.562,-0.264C0.562,-0.223 0.556,-0.185 0.544,-0.151C0.532,-0.116 0.515,-0.087 0.492,-0.063C0.469,-0.038 0.442,-0.019 0.411,-0.006C0.379,0.007 0.343,0.014 0.304,0.014C0.265,0.014 0.23,0.007 0.199,-0.006C0.167,-0.019 0.14,-0.038 0.117,-0.063C0.094,-0.087 0.077,-0.116 0.064,-0.151C0.051,-0.185 0.045,-0.223 0.045,-0.264C0.045,-0.305 0.051,-0.343 0.065,-0.377C0.078,-0.411 0.096,-0.44 0.119,-0.464C0.141,-0.488 0.169,-0.507 0.201,-0.52C0.232,-0.533 0.267,-0.54 0.304,-0.54C0.342,-0.54 0.377,-0.533 0.409,-0.52C0.44,-0.507 0.467,-0.488 0.49,-0.464C0.513,-0.44 0.53,-0.411 0.543,-0.377C0.556,-0.343 0.562,-0.305 0.562,-0.264ZM0.41,-0.264C0.41,-0.31 0.401,-0.346 0.383,-0.373C0.364,-0.399 0.338,-0.412 0.304,-0.412C0.27,-0.412 0.244,-0.399 0.225,-0.373C0.206,-0.346 0.197,-0.31 0.197,-0.264C0.197,-0.218 0.206,-0.182 0.225,-0.155C0.244,-0.128 0.27,-0.114 0.304,-0.114C0.338,-0.114 0.364,-0.128 0.383,-0.155C0.401,-0.182 0.41,-0.218 0.41,-0.264Z" style="fill:rgb(10,19,28);fill-rule:nonzero;"/>
        </g>
        <g transform="matrix(61.3074,0,0,61.3074,624.365,52.346)">
            <path d="M0.359,-0.279C0.359,-0.327 0.353,-0.361 0.341,-0.381C0.328,-0.401 0.307,-0.411 0.277,-0.411C0.268,-0.411 0.258,-0.411 0.248,-0.41C0.238,-0.409 0.228,-0.407 0.219,-0.406L0.219,-0L0.07,-0L0.07,-0.508C0.083,-0.511 0.097,-0.515 0.115,-0.519C0.132,-0.522 0.15,-0.526 0.169,-0.529C0.188,-0.532 0.207,-0.534 0.227,-0.536C0.247,-0.537 0.267,-0.538 0.286,-0.538C0.324,-0.538 0.355,-0.533 0.379,-0.524C0.402,-0.514 0.422,-0.502 0.437,-0.489C0.458,-0.504 0.483,-0.516 0.511,-0.525C0.538,-0.534 0.564,-0.538 0.587,-0.538C0.629,-0.538 0.664,-0.532 0.691,-0.521C0.717,-0.509 0.739,-0.492 0.755,-0.471C0.771,-0.45 0.782,-0.424 0.788,-0.395C0.794,-0.366 0.797,-0.333 0.797,-0.297L0.797,-0L0.648,-0L0.648,-0.279C0.648,-0.327 0.642,-0.361 0.63,-0.381C0.617,-0.401 0.596,-0.411 0.566,-0.411C0.558,-0.411 0.547,-0.409 0.533,-0.405C0.518,-0.401 0.506,-0.396 0.497,-0.39C0.502,-0.375 0.505,-0.359 0.506,-0.342C0.507,-0.325 0.508,-0.306 0.508,-0.287L0.508,-0L0.359,-0L0.359,-0.279Z" style="fill:rgb(10,19,28);fill-rule:nonzero;"/>
        </g>
    </g>
    <g transform="matrix(2.40963,0,0,2.40963,15.625,11.946)">
        <path d="M28.839,0C29.673,0 30.402,0.277 31.027,0.83C31.652,1.384 31.964,2.077 31.964,2.911C31.964,3.661 31.696,4.56 31.161,5.607C27.208,13.095 24.44,17.571 22.857,19.036C21.702,20.119 20.405,20.661 18.964,20.661C17.464,20.661 16.176,20.11 15.098,19.009C14.021,17.908 13.482,16.601 13.482,15.089C13.482,13.565 14.03,12.304 15.125,11.304L26.518,0.964C27.22,0.321 27.994,0 28.839,0ZM12.607,18.464C13.071,19.369 13.705,20.143 14.509,20.786C15.313,21.429 16.208,21.881 17.196,22.143L17.214,23.411C17.262,25.946 16.491,28.012 14.902,29.607C13.313,31.202 11.238,32 8.679,32C7.214,32 5.917,31.723 4.786,31.17C3.655,30.616 2.747,29.857 2.063,28.893C1.378,27.929 0.863,26.839 0.518,25.625C0.173,24.411 0,23.101 0,21.696C0.083,21.756 0.327,21.935 0.732,22.232C1.137,22.53 1.506,22.795 1.839,23.027C2.173,23.259 2.524,23.476 2.893,23.679C3.262,23.881 3.536,23.982 3.714,23.982C4.202,23.982 4.53,23.762 4.696,23.321C4.994,22.536 5.336,21.866 5.723,21.313C6.11,20.759 6.524,20.307 6.964,19.955C7.405,19.604 7.929,19.321 8.536,19.107C9.143,18.893 9.756,18.741 10.375,18.652C10.994,18.563 11.738,18.5 12.607,18.464Z" style="fill:rgb(10,19,28);fill-rule:nonzero;"/>
    </g>
</svg>
