<svg xmlns="http://www.w3.org/2000/svg" xmlns:xlink="http://www.w3.org/1999/xlink" aria-hidden="true" role="img" class="iconify iconify--tabler" width="32" height="32" preserveAspectRatio="xMidYMid meet" viewBox="0 0 24 24"><g fill="none" stroke="currentColor" stroke-linecap="round" stroke-linejoin="round" stroke-width="2"><ellipse cx="12" cy="12" rx="10" ry="9"></ellipse><path d="m5.5 15l.395-1.974L6.5 10h1.32a1 1 0 0 1 .986 1.164l-.167 1a1 1 0 0 1-.986.836H6m9.5 2l.395-1.974L16.5 10h1.32a1 1 0 0 1 .986 1.164l-.167 1a1 1 0 0 1-.986.836H16m-4-5.5L11 13m.6-3H14l-.5 3"></path></g></svg>