<?xml version="1.0" encoding="UTF-8" standalone="no"?>
<!DOCTYPE svg PUBLIC "-//W3C//DTD SVG 1.1//EN" "http://www.w3.org/Graphics/SVG/1.1/DTD/svg11.dtd">
<svg width="100%" height="100%" viewBox="0 0 957 161" version="1.1" xmlns="http://www.w3.org/2000/svg" xmlns:xlink="http://www.w3.org/1999/xlink" xml:space="preserve" xmlns:serif="http://www.serif.com/" style="fill-rule:evenodd;clip-rule:evenodd;stroke-linejoin:round;stroke-miterlimit:2;">
    <g transform="matrix(1,0,0,1,-5.4774,-3.91667)">
        <g transform="matrix(0.203334,0,0,0.203334,1.76214,3.91667)">
            <path d="M615.186,0C657.383,0 696.375,22.512 717.473,59.055C760.495,133.572 834.052,260.976 877.074,335.493C898.173,372.036 898.173,417.06 877.074,453.603C834.052,528.12 760.495,655.524 717.473,730.041C696.375,766.585 657.383,789.096 615.186,789.096L295.983,789.096C253.787,789.096 214.795,766.585 193.697,730.041C150.674,655.524 77.118,528.12 34.095,453.603C12.997,417.06 12.997,372.036 34.095,335.493C77.118,260.976 150.674,133.572 193.697,59.055C214.795,22.512 253.787,0 295.983,0L615.186,0Z" style="fill:rgb(28,187,134);"/>
        </g>
        <g transform="matrix(2.75661,0,0,2.75661,50.3414,40.0358)">
            <path d="M28.839,0C29.673,0 30.402,0.277 31.027,0.83C31.652,1.384 31.964,2.077 31.964,2.911C31.964,3.661 31.696,4.56 31.161,5.607C27.208,13.095 24.44,17.571 22.857,19.036C21.702,20.119 20.405,20.661 18.964,20.661C17.464,20.661 16.176,20.11 15.098,19.009C14.021,17.908 13.482,16.601 13.482,15.089C13.482,13.565 14.03,12.304 15.125,11.304L26.518,0.964C27.22,0.321 27.994,0 28.839,0ZM12.607,18.464C13.071,19.369 13.705,20.143 14.509,20.786C15.313,21.429 16.208,21.881 17.196,22.143L17.214,23.411C17.262,25.946 16.491,28.012 14.902,29.607C13.313,31.202 11.238,32 8.679,32C7.214,32 5.917,31.723 4.786,31.17C3.655,30.616 2.747,29.857 2.063,28.893C1.378,27.929 0.863,26.839 0.518,25.625C0.173,24.411 0,23.101 0,21.696C0.083,21.756 0.327,21.935 0.732,22.232C1.137,22.53 1.506,22.795 1.839,23.027C2.173,23.259 2.524,23.476 2.893,23.679C3.262,23.881 3.536,23.982 3.714,23.982C4.202,23.982 4.53,23.762 4.696,23.321C4.994,22.536 5.336,21.866 5.723,21.313C6.11,20.759 6.524,20.307 6.964,19.955C7.405,19.604 7.929,19.321 8.536,19.107C9.143,18.893 9.756,18.741 10.375,18.652C10.994,18.563 11.738,18.5 12.607,18.464Z" style="fill:white;fill-rule:nonzero;"/>
        </g>
        <g transform="matrix(1,0,0,1,0,-25.9219)">
            <path d="M238.887,45.001C250.76,45.001 259.855,47.113 266.172,51.337C272.489,55.561 275.648,62.125 275.648,71.03C275.648,76.586 274.373,81.096 271.823,84.559C269.273,88.022 265.601,90.743 260.806,92.722C262.404,94.7 264.079,96.965 265.829,99.514C267.58,102.064 269.311,104.728 271.024,107.506C272.736,110.284 274.392,113.176 275.99,116.182C277.588,119.189 279.072,122.138 280.442,125.03L260.464,125.03C259.018,122.442 257.552,119.817 256.068,117.153C254.584,114.489 253.062,111.901 251.502,109.39C249.941,106.878 248.4,104.5 246.878,102.254C245.356,100.009 243.834,97.973 242.311,96.146L233.521,96.146L233.521,125.03L215.711,125.03L215.711,47.056C219.593,46.295 223.607,45.762 227.755,45.457C231.903,45.153 235.614,45.001 238.887,45.001ZM239.914,60.185C238.62,60.185 237.459,60.223 236.432,60.299C235.404,60.375 234.434,60.451 233.521,60.527L233.521,81.99L238.544,81.99C245.242,81.99 250.037,81.153 252.929,79.478C255.821,77.804 257.267,74.95 257.267,70.916C257.267,67.035 255.802,64.276 252.872,62.639C249.941,61.003 245.622,60.185 239.914,60.185Z" style="fill:rgb(10,19,28);fill-rule:nonzero;"/>
            <path d="M344.032,94.891C344.032,99.609 343.347,103.929 341.977,107.848C340.607,111.768 338.628,115.117 336.041,117.895C333.453,120.673 330.351,122.823 326.736,124.345C323.121,125.867 319.068,126.628 314.578,126.628C310.163,126.628 306.148,125.867 302.533,124.345C298.918,122.823 295.817,120.673 293.229,117.895C290.641,115.117 288.624,111.768 287.178,107.848C285.732,103.929 285.009,99.609 285.009,94.891C285.009,90.172 285.751,85.872 287.235,81.99C288.719,78.108 290.774,74.798 293.4,72.058C296.026,69.318 299.146,67.187 302.762,65.665C306.377,64.142 310.316,63.381 314.578,63.381C318.916,63.381 322.893,64.142 326.508,65.665C330.123,67.187 333.225,69.318 335.812,72.058C338.4,74.798 340.417,78.108 341.863,81.99C343.309,85.872 344.032,90.172 344.032,94.891ZM326.679,94.891C326.679,89.639 325.633,85.51 323.54,82.504C321.447,79.497 318.459,77.994 314.578,77.994C310.696,77.994 307.69,79.497 305.559,82.504C303.428,85.51 302.362,89.639 302.362,94.891C302.362,100.142 303.428,104.309 305.559,107.392C307.69,110.474 310.696,112.015 314.578,112.015C318.459,112.015 321.447,110.474 323.54,107.392C325.633,104.309 326.679,100.142 326.679,94.891Z" style="fill:rgb(10,19,28);fill-rule:nonzero;"/>
            <path d="M354.307,95.005C354.307,90.667 355.011,86.576 356.419,82.732C357.827,78.889 359.863,75.54 362.527,72.686C365.191,69.832 368.425,67.567 372.231,65.893C376.036,64.218 380.375,63.381 385.246,63.381C388.442,63.381 391.372,63.667 394.036,64.237C396.7,64.808 399.288,65.626 401.799,66.692L398.26,80.278C396.662,79.669 394.911,79.136 393.009,78.679C391.106,78.223 388.975,77.994 386.616,77.994C381.592,77.994 377.844,79.555 375.37,82.675C372.897,85.796 371.66,89.905 371.66,95.005C371.66,100.409 372.821,104.595 375.142,107.563C377.463,110.531 381.516,112.015 387.301,112.015C389.355,112.015 391.563,111.825 393.922,111.445C396.281,111.064 398.451,110.455 400.429,109.618L402.827,123.546C400.848,124.383 398.374,125.106 395.406,125.715C392.438,126.324 389.165,126.628 385.588,126.628C380.108,126.628 375.389,125.81 371.432,124.174C367.474,122.538 364.22,120.311 361.671,117.495C359.121,114.679 357.256,111.349 356.076,107.506C354.897,103.662 354.307,99.495 354.307,95.005Z" style="fill:rgb(10,19,28);fill-rule:nonzero;"/>
            <path d="M431.254,86.671C432.928,84.844 434.66,82.941 436.448,80.963C438.237,78.984 439.968,77.024 441.643,75.083C443.317,73.142 444.897,71.297 446.381,69.546C447.865,67.796 449.14,66.273 450.205,64.98L470.412,64.98C466.379,69.622 462.44,74.056 458.596,78.28C454.753,82.504 450.548,86.861 445.981,91.352C448.264,93.407 450.624,95.861 453.059,98.715C455.495,101.569 457.854,104.519 460.138,107.563C462.421,110.607 464.514,113.652 466.417,116.696C468.319,119.741 469.918,122.519 471.212,125.03L451.689,125.03C450.472,123.051 449.083,120.863 447.522,118.466C445.962,116.068 444.307,113.671 442.556,111.273C440.806,108.876 438.96,106.574 437.019,104.366C435.078,102.159 433.157,100.294 431.254,98.772L431.254,125.03L414.243,125.03L414.243,39.178L431.254,36.438L431.254,86.671Z" style="fill:rgb(10,19,28);fill-rule:nonzero;"/>
            <path d="M481.486,125.03L481.486,45.914L534.459,45.914L534.459,60.87L499.296,60.87L499.296,77.424L530.577,77.424L530.577,92.379L499.296,92.379L499.296,125.03L481.486,125.03Z" style="fill:rgb(10,19,28);fill-rule:nonzero;"/>
            <path d="M579.782,80.049C578.26,79.669 576.471,79.269 574.416,78.851C572.361,78.432 570.154,78.223 567.795,78.223C566.729,78.223 565.454,78.318 563.97,78.508C562.486,78.698 561.363,78.908 560.602,79.136L560.602,125.03L543.592,125.03L543.592,68.176C546.636,67.111 550.232,66.102 554.38,65.151C558.528,64.199 563.152,63.724 568.251,63.724C569.165,63.724 570.268,63.781 571.562,63.895C572.856,64.009 574.15,64.161 575.444,64.352C576.738,64.542 578.032,64.77 579.325,65.037C580.619,65.303 581.723,65.626 582.636,66.007L579.782,80.049Z" style="fill:rgb(10,19,28);fill-rule:nonzero;"/>
            <path d="M646.797,94.891C646.797,99.609 646.112,103.929 644.742,107.848C643.372,111.768 641.393,115.117 638.805,117.895C636.217,120.673 633.116,122.823 629.501,124.345C625.886,125.867 621.833,126.628 617.342,126.628C612.928,126.628 608.913,125.867 605.298,124.345C601.683,122.823 598.581,120.673 595.993,117.895C593.406,115.117 591.389,111.768 589.943,107.848C588.497,103.929 587.774,99.609 587.774,94.891C587.774,90.172 588.516,85.872 590,81.99C591.484,78.108 593.539,74.798 596.165,72.058C598.79,69.318 601.911,67.187 605.526,65.665C609.141,64.142 613.08,63.381 617.342,63.381C621.68,63.381 625.657,64.142 629.272,65.665C632.888,67.187 635.989,69.318 638.577,72.058C641.165,74.798 643.181,78.108 644.628,81.99C646.074,85.872 646.797,90.172 646.797,94.891ZM629.444,94.891C629.444,89.639 628.397,85.51 626.304,82.504C624.211,79.497 621.224,77.994 617.342,77.994C613.461,77.994 610.454,79.497 608.323,82.504C606.192,85.51 605.127,89.639 605.127,94.891C605.127,100.142 606.192,104.309 608.323,107.392C610.454,110.474 613.461,112.015 617.342,112.015C621.224,112.015 624.211,110.474 626.304,107.392C628.397,104.309 629.444,100.142 629.444,94.891Z" style="fill:rgb(10,19,28);fill-rule:nonzero;"/>
            <path d="M659.926,67.035C662.818,66.197 666.547,65.417 671.114,64.694C675.68,63.971 680.475,63.61 685.498,63.61C690.598,63.61 694.841,64.276 698.228,65.607C701.615,66.939 704.298,68.823 706.276,71.259C708.255,73.694 709.663,76.586 710.501,79.935C711.338,83.284 711.756,87.013 711.756,91.123L711.756,125.03L694.746,125.03L694.746,93.178C694.746,87.698 694.023,83.817 692.577,81.533C691.131,79.25 688.429,78.108 684.471,78.108C683.253,78.108 681.959,78.166 680.589,78.28C679.219,78.394 678.002,78.527 676.936,78.679L676.936,125.03L659.926,125.03L659.926,67.035Z" style="fill:rgb(10,19,28);fill-rule:nonzero;"/>
            <path d="M726.598,50.024L743.608,47.284L743.608,64.98L764.044,64.98L764.044,79.136L743.608,79.136L743.608,100.256C743.608,103.834 744.236,106.688 745.492,108.819C746.748,110.95 749.278,112.015 753.084,112.015C754.911,112.015 756.794,111.844 758.735,111.502C760.676,111.159 762.445,110.683 764.044,110.075L766.441,123.318C764.386,124.155 762.103,124.878 759.591,125.487C757.08,126.096 753.997,126.4 750.344,126.4C745.701,126.4 741.858,125.772 738.813,124.516C735.769,123.261 733.333,121.51 731.507,119.265C729.68,117.02 728.405,114.299 727.682,111.102C726.959,107.905 726.598,104.366 726.598,100.485L726.598,50.024Z" style="fill:rgb(10,19,28);fill-rule:nonzero;"/>
            <path d="M772.72,95.462C772.72,90.134 773.538,85.472 775.175,81.476C776.811,77.481 778.961,74.151 781.625,71.487C784.289,68.823 787.352,66.806 790.815,65.436C794.278,64.066 797.836,63.381 801.49,63.381C810.014,63.381 816.75,65.988 821.697,71.202C826.644,76.415 829.118,84.083 829.118,94.206C829.118,95.195 829.08,96.28 829.003,97.459C828.927,98.639 828.851,99.686 828.775,100.599L790.187,100.599C790.568,104.1 792.204,106.878 795.097,108.933C797.989,110.988 801.87,112.015 806.741,112.015C809.862,112.015 812.925,111.73 815.932,111.159C818.938,110.588 821.392,109.884 823.295,109.047L825.578,122.861C824.665,123.318 823.447,123.774 821.925,124.231C820.403,124.688 818.71,125.087 816.845,125.43C814.98,125.772 812.982,126.058 810.851,126.286C808.72,126.514 806.589,126.628 804.458,126.628C799.054,126.628 794.354,125.829 790.359,124.231C786.363,122.633 783.052,120.445 780.426,117.667C777.801,114.889 775.86,111.597 774.604,107.791C773.348,103.986 772.72,99.876 772.72,95.462ZM812.678,88.954C812.602,87.508 812.354,86.1 811.936,84.73C811.517,83.36 810.87,82.142 809.995,81.077C809.12,80.011 808.016,79.136 806.684,78.451C805.352,77.766 803.697,77.424 801.718,77.424C799.815,77.424 798.179,77.747 796.809,78.394C795.439,79.041 794.297,79.897 793.384,80.963C792.471,82.028 791.767,83.265 791.272,84.673C790.777,86.081 790.416,87.508 790.187,88.954L812.678,88.954Z" style="fill:rgb(10,19,28);fill-rule:nonzero;"/>
            <path d="M842.247,67.035C845.139,66.197 848.868,65.417 853.435,64.694C858.001,63.971 862.796,63.61 867.819,63.61C872.919,63.61 877.162,64.276 880.549,65.607C883.936,66.939 886.618,68.823 888.597,71.259C890.576,73.694 891.984,76.586 892.821,79.935C893.659,83.284 894.077,87.013 894.077,91.123L894.077,125.03L877.067,125.03L877.067,93.178C877.067,87.698 876.344,83.817 874.898,81.533C873.452,79.25 870.75,78.108 866.792,78.108C865.574,78.108 864.28,78.166 862.91,78.28C861.54,78.394 860.323,78.527 859.257,78.679L859.257,125.03L842.247,125.03L842.247,67.035Z" style="fill:rgb(10,19,28);fill-rule:nonzero;"/>
            <path d="M923.988,94.548C923.988,99.8 925.168,104.024 927.527,107.22C929.887,110.417 933.388,112.015 938.031,112.015C939.553,112.015 940.961,111.958 942.255,111.844C943.549,111.73 944.614,111.597 945.451,111.445L945.451,80.506C944.386,79.821 942.997,79.25 941.284,78.793C939.572,78.337 937.84,78.108 936.09,78.108C928.022,78.108 923.988,83.588 923.988,94.548ZM962.462,123.089C960.94,123.546 959.189,123.984 957.21,124.402C955.231,124.821 953.157,125.182 950.988,125.487C948.819,125.791 946.612,126.039 944.367,126.229C942.122,126.419 939.971,126.514 937.916,126.514C932.969,126.514 928.555,125.791 924.673,124.345C920.792,122.899 917.519,120.825 914.855,118.123C912.191,115.421 910.155,112.149 908.747,108.305C907.339,104.461 906.635,100.142 906.635,95.347C906.635,90.476 907.244,86.081 908.462,82.161C909.68,78.242 911.43,74.912 913.714,72.172C915.997,69.432 918.794,67.339 922.105,65.893C925.415,64.447 929.202,63.724 933.464,63.724C935.823,63.724 937.935,63.952 939.8,64.409C941.665,64.865 943.549,65.512 945.451,66.35L945.451,39.178L962.462,36.438L962.462,123.089Z" style="fill:rgb(10,19,28);fill-rule:nonzero;"/>
        </g>
    </g>
    <g transform="matrix(0.705041,0,0,0.705041,34.4236,24.4345)">
        <g transform="matrix(62.0373,0,0,62.0373,244.399,181.255)">
            <path d="M0.407,-0.267C0.407,-0.363 0.372,-0.411 0.301,-0.411C0.286,-0.411 0.271,-0.409 0.256,-0.405C0.241,-0.401 0.228,-0.396 0.219,-0.39L0.219,-0.119C0.226,-0.118 0.236,-0.117 0.247,-0.116C0.258,-0.115 0.271,-0.114 0.284,-0.114C0.325,-0.114 0.355,-0.128 0.376,-0.156C0.397,-0.184 0.407,-0.221 0.407,-0.267ZM0.559,-0.263C0.559,-0.221 0.553,-0.183 0.541,-0.149C0.528,-0.115 0.51,-0.086 0.487,-0.062C0.464,-0.038 0.435,-0.02 0.401,-0.007C0.367,0.007 0.328,0.013 0.285,0.013C0.267,0.013 0.248,0.012 0.229,0.011C0.209,0.009 0.19,0.007 0.171,0.004C0.152,0.001 0.133,-0.002 0.116,-0.006C0.099,-0.009 0.083,-0.013 0.07,-0.017L0.07,-0.752L0.219,-0.776L0.219,-0.514C0.236,-0.521 0.253,-0.527 0.271,-0.531C0.289,-0.535 0.308,-0.537 0.329,-0.537C0.366,-0.537 0.399,-0.531 0.428,-0.518C0.457,-0.505 0.481,-0.486 0.5,-0.462C0.519,-0.438 0.534,-0.409 0.544,-0.376C0.554,-0.342 0.559,-0.304 0.559,-0.263Z" style="fill:rgb(10,19,28);fill-rule:nonzero;"/>
        </g>
        <g transform="matrix(62.0373,0,0,62.0373,281.001,181.255)">
            <path d="M0.537,-0.526C0.507,-0.425 0.476,-0.33 0.443,-0.241C0.41,-0.152 0.375,-0.066 0.336,0.017C0.322,0.047 0.308,0.073 0.294,0.094C0.28,0.115 0.265,0.132 0.248,0.146C0.231,0.159 0.213,0.169 0.192,0.176C0.171,0.182 0.146,0.185 0.118,0.185C0.095,0.185 0.073,0.183 0.054,0.179C0.034,0.174 0.018,0.169 0.005,0.164L0.031,0.045C0.046,0.05 0.06,0.054 0.072,0.056C0.084,0.058 0.097,0.059 0.11,0.059C0.137,0.059 0.157,0.052 0.172,0.038C0.186,0.023 0.198,0.003 0.208,-0.022C0.174,-0.089 0.14,-0.164 0.106,-0.247C0.072,-0.329 0.04,-0.423 0.01,-0.526L0.168,-0.526C0.175,-0.5 0.183,-0.472 0.192,-0.442C0.201,-0.411 0.21,-0.381 0.22,-0.35C0.23,-0.319 0.24,-0.288 0.251,-0.259C0.261,-0.23 0.271,-0.203 0.28,-0.179C0.289,-0.203 0.298,-0.23 0.307,-0.259C0.316,-0.288 0.326,-0.319 0.335,-0.35C0.343,-0.381 0.352,-0.411 0.361,-0.442C0.369,-0.472 0.376,-0.5 0.383,-0.526L0.537,-0.526Z" style="fill:rgb(10,19,28);fill-rule:nonzero;"/>
        </g>
        <g transform="matrix(62.0373,0,0,62.0373,329.824,181.255)">
            <path d="M0.407,-0.267C0.407,-0.363 0.372,-0.411 0.301,-0.411C0.286,-0.411 0.271,-0.409 0.256,-0.405C0.241,-0.401 0.228,-0.396 0.219,-0.39L0.219,-0.119C0.226,-0.118 0.236,-0.117 0.247,-0.116C0.258,-0.115 0.271,-0.114 0.284,-0.114C0.325,-0.114 0.355,-0.128 0.376,-0.156C0.397,-0.184 0.407,-0.221 0.407,-0.267ZM0.559,-0.263C0.559,-0.221 0.553,-0.183 0.541,-0.149C0.528,-0.115 0.51,-0.086 0.487,-0.062C0.464,-0.038 0.435,-0.02 0.401,-0.007C0.367,0.007 0.328,0.013 0.285,0.013C0.267,0.013 0.248,0.012 0.229,0.011C0.209,0.009 0.19,0.007 0.171,0.004C0.152,0.001 0.133,-0.002 0.116,-0.006C0.099,-0.009 0.083,-0.013 0.07,-0.017L0.07,-0.752L0.219,-0.776L0.219,-0.514C0.236,-0.521 0.253,-0.527 0.271,-0.531C0.289,-0.535 0.308,-0.537 0.329,-0.537C0.366,-0.537 0.399,-0.531 0.428,-0.518C0.457,-0.505 0.481,-0.486 0.5,-0.462C0.519,-0.438 0.534,-0.409 0.544,-0.376C0.554,-0.342 0.559,-0.304 0.559,-0.263Z" style="fill:rgb(10,19,28);fill-rule:nonzero;"/>
        </g>
        <g transform="matrix(62.0373,0,0,62.0373,367.295,181.255)">
            <path d="M0.271,-0.104C0.286,-0.104 0.3,-0.104 0.313,-0.105C0.326,-0.106 0.337,-0.107 0.345,-0.108L0.345,-0.221C0.339,-0.222 0.33,-0.224 0.318,-0.225C0.306,-0.226 0.295,-0.227 0.285,-0.227C0.271,-0.227 0.258,-0.226 0.246,-0.225C0.233,-0.223 0.222,-0.22 0.213,-0.215C0.204,-0.21 0.196,-0.204 0.191,-0.196C0.186,-0.188 0.183,-0.178 0.183,-0.166C0.183,-0.143 0.191,-0.127 0.207,-0.118C0.222,-0.109 0.244,-0.104 0.271,-0.104ZM0.259,-0.54C0.303,-0.54 0.34,-0.535 0.369,-0.525C0.398,-0.515 0.422,-0.501 0.44,-0.482C0.457,-0.463 0.47,-0.441 0.477,-0.414C0.484,-0.387 0.488,-0.358 0.488,-0.325L0.488,-0.015C0.467,-0.01 0.437,-0.005 0.399,0.002C0.361,0.008 0.315,0.011 0.261,0.011C0.227,0.011 0.196,0.008 0.169,0.002C0.141,-0.004 0.117,-0.014 0.097,-0.028C0.077,-0.041 0.062,-0.059 0.051,-0.081C0.04,-0.103 0.035,-0.13 0.035,-0.162C0.035,-0.193 0.041,-0.219 0.054,-0.24C0.066,-0.261 0.082,-0.278 0.103,-0.291C0.124,-0.304 0.147,-0.313 0.174,-0.319C0.201,-0.324 0.228,-0.327 0.257,-0.327C0.276,-0.327 0.294,-0.326 0.309,-0.325C0.324,-0.323 0.336,-0.321 0.345,-0.318L0.345,-0.332C0.345,-0.357 0.337,-0.378 0.322,-0.393C0.307,-0.408 0.28,-0.416 0.242,-0.416C0.217,-0.416 0.192,-0.414 0.167,-0.411C0.142,-0.407 0.121,-0.402 0.103,-0.395L0.084,-0.515C0.093,-0.518 0.103,-0.521 0.117,-0.524C0.13,-0.527 0.144,-0.529 0.159,-0.532C0.174,-0.534 0.191,-0.536 0.208,-0.538C0.225,-0.539 0.242,-0.54 0.259,-0.54Z" style="fill:rgb(10,19,28);fill-rule:nonzero;"/>
        </g>
        <g transform="matrix(62.0373,0,0,62.0373,401.601,181.255)">
            <path d="M0.519,-0.018C0.494,-0.011 0.461,-0.004 0.421,0.003C0.381,0.009 0.339,0.012 0.295,0.012C0.25,0.012 0.213,0.006 0.184,-0.006C0.154,-0.018 0.13,-0.035 0.113,-0.057C0.096,-0.078 0.083,-0.104 0.076,-0.134C0.069,-0.164 0.065,-0.197 0.065,-0.233L0.065,-0.526L0.214,-0.526L0.214,-0.251C0.214,-0.203 0.22,-0.168 0.233,-0.147C0.246,-0.126 0.269,-0.115 0.304,-0.115C0.315,-0.115 0.326,-0.116 0.338,-0.117C0.35,-0.118 0.361,-0.119 0.37,-0.12L0.37,-0.526L0.519,-0.526L0.519,-0.018Z" style="fill:rgb(10,19,28);fill-rule:nonzero;"/>
        </g>
        <g transform="matrix(62.0373,0,0,62.0373,438.141,181.255)">
            <path d="M0.359,-0.279C0.359,-0.327 0.353,-0.361 0.341,-0.381C0.328,-0.401 0.307,-0.411 0.277,-0.411C0.268,-0.411 0.258,-0.411 0.248,-0.41C0.238,-0.409 0.228,-0.407 0.219,-0.406L0.219,-0L0.07,-0L0.07,-0.508C0.083,-0.511 0.097,-0.515 0.115,-0.519C0.132,-0.522 0.15,-0.526 0.169,-0.529C0.188,-0.532 0.207,-0.534 0.227,-0.536C0.247,-0.537 0.267,-0.538 0.286,-0.538C0.324,-0.538 0.355,-0.533 0.379,-0.524C0.402,-0.514 0.422,-0.502 0.437,-0.489C0.458,-0.504 0.483,-0.516 0.511,-0.525C0.538,-0.534 0.564,-0.538 0.587,-0.538C0.629,-0.538 0.664,-0.532 0.691,-0.521C0.717,-0.509 0.739,-0.492 0.755,-0.471C0.771,-0.45 0.782,-0.424 0.788,-0.395C0.794,-0.366 0.797,-0.333 0.797,-0.297L0.797,-0L0.648,-0L0.648,-0.279C0.648,-0.327 0.642,-0.361 0.63,-0.381C0.617,-0.401 0.596,-0.411 0.566,-0.411C0.558,-0.411 0.547,-0.409 0.533,-0.405C0.518,-0.401 0.506,-0.396 0.497,-0.39C0.502,-0.375 0.505,-0.359 0.506,-0.342C0.507,-0.325 0.508,-0.306 0.508,-0.287L0.508,-0L0.359,-0L0.359,-0.279Z" style="fill:rgb(10,19,28);fill-rule:nonzero;"/>
        </g>
        <g transform="matrix(62.0373,0,0,62.0373,491.617,181.255)">
            <path d="M0.387,-0.394C0.374,-0.397 0.358,-0.401 0.34,-0.405C0.322,-0.408 0.303,-0.41 0.282,-0.41C0.273,-0.41 0.262,-0.409 0.249,-0.408C0.236,-0.406 0.226,-0.404 0.219,-0.402L0.219,-0L0.07,-0L0.07,-0.498C0.097,-0.507 0.128,-0.516 0.165,-0.525C0.201,-0.533 0.241,-0.537 0.286,-0.537C0.294,-0.537 0.304,-0.537 0.315,-0.536C0.326,-0.535 0.338,-0.533 0.349,-0.532C0.36,-0.53 0.372,-0.528 0.383,-0.526C0.394,-0.523 0.404,-0.52 0.412,-0.517L0.387,-0.394Z" style="fill:rgb(10,19,28);fill-rule:nonzero;"/>
        </g>
        <g transform="matrix(62.0373,0,0,62.0373,517.177,181.255)">
            <path d="M0.562,-0.264C0.562,-0.223 0.556,-0.185 0.544,-0.151C0.532,-0.116 0.515,-0.087 0.492,-0.063C0.469,-0.038 0.442,-0.019 0.411,-0.006C0.379,0.007 0.343,0.014 0.304,0.014C0.265,0.014 0.23,0.007 0.199,-0.006C0.167,-0.019 0.14,-0.038 0.117,-0.063C0.094,-0.087 0.077,-0.116 0.064,-0.151C0.051,-0.185 0.045,-0.223 0.045,-0.264C0.045,-0.305 0.051,-0.343 0.065,-0.377C0.078,-0.411 0.096,-0.44 0.119,-0.464C0.141,-0.488 0.169,-0.507 0.201,-0.52C0.232,-0.533 0.267,-0.54 0.304,-0.54C0.342,-0.54 0.377,-0.533 0.409,-0.52C0.44,-0.507 0.467,-0.488 0.49,-0.464C0.513,-0.44 0.53,-0.411 0.543,-0.377C0.556,-0.343 0.562,-0.305 0.562,-0.264ZM0.41,-0.264C0.41,-0.31 0.401,-0.346 0.383,-0.373C0.364,-0.399 0.338,-0.412 0.304,-0.412C0.27,-0.412 0.244,-0.399 0.225,-0.373C0.206,-0.346 0.197,-0.31 0.197,-0.264C0.197,-0.218 0.206,-0.182 0.225,-0.155C0.244,-0.128 0.27,-0.114 0.304,-0.114C0.338,-0.114 0.364,-0.128 0.383,-0.155C0.401,-0.182 0.41,-0.218 0.41,-0.264Z" style="fill:rgb(10,19,28);fill-rule:nonzero;"/>
        </g>
        <g transform="matrix(62.0373,0,0,62.0373,554.833,181.255)">
            <path d="M0.045,-0.263C0.045,-0.301 0.051,-0.337 0.064,-0.371C0.076,-0.404 0.094,-0.434 0.117,-0.459C0.14,-0.484 0.169,-0.503 0.202,-0.518C0.235,-0.533 0.273,-0.54 0.316,-0.54C0.344,-0.54 0.37,-0.538 0.393,-0.533C0.416,-0.528 0.439,-0.52 0.461,-0.511L0.43,-0.392C0.416,-0.397 0.401,-0.402 0.384,-0.406C0.367,-0.41 0.349,-0.412 0.328,-0.412C0.284,-0.412 0.251,-0.398 0.23,-0.371C0.208,-0.344 0.197,-0.308 0.197,-0.263C0.197,-0.216 0.207,-0.179 0.228,-0.153C0.248,-0.127 0.283,-0.114 0.334,-0.114C0.352,-0.114 0.371,-0.116 0.392,-0.119C0.413,-0.122 0.432,-0.128 0.449,-0.135L0.47,-0.013C0.453,-0.006 0.431,0.001 0.405,0.006C0.379,0.011 0.35,0.014 0.319,0.014C0.271,0.014 0.23,0.007 0.195,-0.008C0.16,-0.022 0.132,-0.041 0.11,-0.066C0.087,-0.091 0.071,-0.12 0.061,-0.154C0.05,-0.187 0.045,-0.224 0.045,-0.263Z" style="fill:rgb(10,19,28);fill-rule:nonzero;"/>
        </g>
        <g transform="matrix(62.0373,0,0,62.0373,585.852,181.255)">
            <path d="M0.219,-0.336C0.234,-0.352 0.249,-0.369 0.265,-0.386C0.28,-0.403 0.295,-0.421 0.31,-0.438C0.325,-0.455 0.339,-0.471 0.352,-0.486C0.365,-0.501 0.376,-0.515 0.385,-0.526L0.562,-0.526C0.527,-0.485 0.492,-0.447 0.459,-0.41C0.425,-0.373 0.388,-0.334 0.348,-0.295C0.368,-0.277 0.389,-0.256 0.41,-0.231C0.431,-0.206 0.452,-0.18 0.472,-0.153C0.492,-0.126 0.51,-0.1 0.527,-0.073C0.544,-0.046 0.558,-0.022 0.569,-0L0.398,-0C0.387,-0.017 0.375,-0.037 0.362,-0.058C0.348,-0.079 0.333,-0.099 0.318,-0.121C0.303,-0.141 0.286,-0.162 0.27,-0.181C0.253,-0.2 0.236,-0.217 0.219,-0.23L0.219,-0L0.07,-0L0.07,-0.752L0.219,-0.776L0.219,-0.336Z" style="fill:rgb(10,19,28);fill-rule:nonzero;"/>
        </g>
        <g transform="matrix(62.0373,0,0,62.0373,622.516,181.255)">
            <path d="M0.216,-0.079C0.216,-0.049 0.206,-0.026 0.188,-0.011C0.169,0.005 0.147,0.013 0.123,0.013C0.099,0.013 0.078,0.005 0.059,-0.011C0.04,-0.026 0.03,-0.049 0.03,-0.079C0.03,-0.109 0.04,-0.132 0.059,-0.148C0.078,-0.163 0.099,-0.171 0.123,-0.171C0.147,-0.171 0.169,-0.163 0.188,-0.148C0.206,-0.132 0.216,-0.109 0.216,-0.079Z" style="fill:rgb(10,19,28);fill-rule:nonzero;"/>
        </g>
        <g transform="matrix(62.0373,0,0,62.0373,635.916,181.255)">
            <path d="M0.045,-0.263C0.045,-0.301 0.051,-0.337 0.064,-0.371C0.076,-0.404 0.094,-0.434 0.117,-0.459C0.14,-0.484 0.169,-0.503 0.202,-0.518C0.235,-0.533 0.273,-0.54 0.316,-0.54C0.344,-0.54 0.37,-0.538 0.393,-0.533C0.416,-0.528 0.439,-0.52 0.461,-0.511L0.43,-0.392C0.416,-0.397 0.401,-0.402 0.384,-0.406C0.367,-0.41 0.349,-0.412 0.328,-0.412C0.284,-0.412 0.251,-0.398 0.23,-0.371C0.208,-0.344 0.197,-0.308 0.197,-0.263C0.197,-0.216 0.207,-0.179 0.228,-0.153C0.248,-0.127 0.283,-0.114 0.334,-0.114C0.352,-0.114 0.371,-0.116 0.392,-0.119C0.413,-0.122 0.432,-0.128 0.449,-0.135L0.47,-0.013C0.453,-0.006 0.431,0.001 0.405,0.006C0.379,0.011 0.35,0.014 0.319,0.014C0.271,0.014 0.23,0.007 0.195,-0.008C0.16,-0.022 0.132,-0.041 0.11,-0.066C0.087,-0.091 0.071,-0.12 0.061,-0.154C0.05,-0.187 0.045,-0.224 0.045,-0.263Z" style="fill:rgb(10,19,28);fill-rule:nonzero;"/>
        </g>
        <g transform="matrix(62.0373,0,0,62.0373,665.384,181.255)">
            <path d="M0.562,-0.264C0.562,-0.223 0.556,-0.185 0.544,-0.151C0.532,-0.116 0.515,-0.087 0.492,-0.063C0.469,-0.038 0.442,-0.019 0.411,-0.006C0.379,0.007 0.343,0.014 0.304,0.014C0.265,0.014 0.23,0.007 0.199,-0.006C0.167,-0.019 0.14,-0.038 0.117,-0.063C0.094,-0.087 0.077,-0.116 0.064,-0.151C0.051,-0.185 0.045,-0.223 0.045,-0.264C0.045,-0.305 0.051,-0.343 0.065,-0.377C0.078,-0.411 0.096,-0.44 0.119,-0.464C0.141,-0.488 0.169,-0.507 0.201,-0.52C0.232,-0.533 0.267,-0.54 0.304,-0.54C0.342,-0.54 0.377,-0.533 0.409,-0.52C0.44,-0.507 0.467,-0.488 0.49,-0.464C0.513,-0.44 0.53,-0.411 0.543,-0.377C0.556,-0.343 0.562,-0.305 0.562,-0.264ZM0.41,-0.264C0.41,-0.31 0.401,-0.346 0.383,-0.373C0.364,-0.399 0.338,-0.412 0.304,-0.412C0.27,-0.412 0.244,-0.399 0.225,-0.373C0.206,-0.346 0.197,-0.31 0.197,-0.264C0.197,-0.218 0.206,-0.182 0.225,-0.155C0.244,-0.128 0.27,-0.114 0.304,-0.114C0.338,-0.114 0.364,-0.128 0.383,-0.155C0.401,-0.182 0.41,-0.218 0.41,-0.264Z" style="fill:rgb(10,19,28);fill-rule:nonzero;"/>
        </g>
        <g transform="matrix(62.0373,0,0,62.0373,703.04,181.255)">
            <path d="M0.359,-0.279C0.359,-0.327 0.353,-0.361 0.341,-0.381C0.328,-0.401 0.307,-0.411 0.277,-0.411C0.268,-0.411 0.258,-0.411 0.248,-0.41C0.238,-0.409 0.228,-0.407 0.219,-0.406L0.219,-0L0.07,-0L0.07,-0.508C0.083,-0.511 0.097,-0.515 0.115,-0.519C0.132,-0.522 0.15,-0.526 0.169,-0.529C0.188,-0.532 0.207,-0.534 0.227,-0.536C0.247,-0.537 0.267,-0.538 0.286,-0.538C0.324,-0.538 0.355,-0.533 0.379,-0.524C0.402,-0.514 0.422,-0.502 0.437,-0.489C0.458,-0.504 0.483,-0.516 0.511,-0.525C0.538,-0.534 0.564,-0.538 0.587,-0.538C0.629,-0.538 0.664,-0.532 0.691,-0.521C0.717,-0.509 0.739,-0.492 0.755,-0.471C0.771,-0.45 0.782,-0.424 0.788,-0.395C0.794,-0.366 0.797,-0.333 0.797,-0.297L0.797,-0L0.648,-0L0.648,-0.279C0.648,-0.327 0.642,-0.361 0.63,-0.381C0.617,-0.401 0.596,-0.411 0.566,-0.411C0.558,-0.411 0.547,-0.409 0.533,-0.405C0.518,-0.401 0.506,-0.396 0.497,-0.39C0.502,-0.375 0.505,-0.359 0.506,-0.342C0.507,-0.325 0.508,-0.306 0.508,-0.287L0.508,-0L0.359,-0L0.359,-0.279Z" style="fill:rgb(10,19,28);fill-rule:nonzero;"/>
        </g>
    </g>
</svg>
